<svg width="622" height="621" viewBox="0 0 622 621" fill="none" xmlns="http://www.w3.org/2000/svg">
<path d="M279.546 600.559C280.925 600.703 282.14 601.138 283.19 601.865C284.227 602.59 285.008 603.522 285.532 604.663C286.042 605.816 286.227 607.062 286.087 608.401C285.947 609.74 285.509 610.915 284.774 611.924C284.023 612.945 283.06 613.702 281.882 614.195C280.704 614.689 279.426 614.864 278.047 614.72C277.012 614.612 276.075 614.339 275.236 613.903C274.397 613.467 273.707 612.885 273.166 612.159L274.199 611.321C275.171 612.536 276.486 613.229 278.144 613.403C279.245 613.518 280.272 613.37 281.227 612.961C282.181 612.551 282.963 611.935 283.571 611.114C284.167 610.292 284.521 609.337 284.635 608.249C284.748 607.162 284.599 606.154 284.186 605.226C283.761 604.297 283.123 603.533 282.274 602.935C281.425 602.337 280.45 601.98 279.349 601.865C277.679 601.691 276.248 602.104 275.057 603.106L274.22 602.074C274.899 601.474 275.702 601.042 276.628 600.777C277.539 600.523 278.512 600.451 279.546 600.559Z" fill="#FC6E46"/>
<path d="M256.584 601.109L264.268 602.446L266.564 599.049L268.082 599.313L259.378 612.009L257.939 611.759L254.032 596.87L255.569 597.137L256.584 601.109ZM256.91 602.384L258.932 610.369L263.531 603.536L256.91 602.384Z" fill="#FC6E46"/>
<path d="M243.109 608.803L241.67 608.458L244.633 596.088L237.009 594.262L237.307 593.017L246.37 595.188L243.109 608.803Z" fill="#FC6E46"/>
<path d="M226.087 604.405L224.667 603.989L228.596 590.552L230.017 590.968L226.087 604.405Z" fill="#FC6E46"/>
<path d="M213.068 598.997L214.879 593.803L208.043 591.42L208.464 590.211L215.301 592.595L217.256 586.986L218.654 587.473L214.044 600.693L204.979 597.532L205.401 596.323L213.068 598.997Z" fill="#FC6E46"/>
<path d="M196.302 578.844C197.577 579.389 198.615 580.165 199.417 581.175C200.201 582.191 200.675 583.321 200.839 584.566C200.992 585.805 200.803 587.044 200.274 588.282C199.745 589.521 198.981 590.514 197.98 591.261C196.968 592.003 195.826 592.436 194.555 592.56C193.266 592.691 191.985 592.484 190.709 591.94C189.434 591.395 188.408 590.624 187.631 589.625C186.842 588.621 186.368 587.491 186.209 586.234C186.044 584.989 186.226 583.748 186.755 582.509C187.284 581.271 188.058 580.275 189.076 579.52C190.088 578.779 191.23 578.345 192.501 578.221C193.76 578.092 195.027 578.299 196.302 578.844ZM195.783 580.058C194.766 579.623 193.749 579.457 192.734 579.56C191.713 579.675 190.797 580.038 189.986 580.648C189.169 581.271 188.546 582.085 188.116 583.091C187.687 584.096 187.533 585.103 187.653 586.111C187.768 587.132 188.139 588.044 188.767 588.849C189.39 589.666 190.21 590.291 191.228 590.726C192.246 591.161 193.271 591.323 194.304 591.213C195.319 591.11 196.241 590.75 197.07 590.133C197.882 589.522 198.502 588.715 198.932 587.709C199.361 586.704 199.518 585.691 199.403 584.67C199.27 583.657 198.893 582.741 198.27 581.925C197.63 581.115 196.801 580.493 195.783 580.058Z" fill="#FC6E46"/>
<path d="M173.444 568.067L174.231 573.532C174.57 573.661 174.911 573.814 175.255 573.991L178.598 575.711L180.629 571.763L181.945 572.439L175.542 584.889L170.882 582.492C169.293 581.675 168.243 580.655 167.733 579.433C167.222 578.211 167.308 576.936 167.991 575.608C168.491 574.635 169.164 573.939 170.009 573.52C170.837 573.106 171.784 572.985 172.849 573.158L172.003 567.326L173.444 568.067ZM174.714 575.13C173.481 574.496 172.398 574.283 171.465 574.493C170.533 574.703 169.813 575.3 169.307 576.285C168.789 577.292 168.718 578.231 169.096 579.1C169.468 579.981 170.27 580.738 171.503 581.372L174.811 583.074L178.022 576.831L174.714 575.13Z" fill="#FC6E46"/>
<path d="M147.167 568.977L154.443 557.016L155.486 557.65L157.27 572.033L163.175 562.328L164.439 563.097L157.163 575.058L156.12 574.424L154.318 560.03L148.414 569.736L147.167 568.977Z" fill="#FC6E46"/>
<path d="M138.02 562.896L136.802 562.055L144.758 550.535L145.976 551.376L138.02 562.896Z" fill="#FC6E46"/>
<path d="M127.052 542.085L133.22 546.861L136.838 544.932L138.056 545.875L124.424 553.026L123.27 552.133L126.78 537.145L128.014 538.1L127.052 542.085ZM126.745 543.365L124.798 551.368L132.058 547.479L126.745 543.365Z" fill="#FC6E46"/>
<path d="M102.903 534.929L98.8023 530.97C97.7374 529.942 97.0057 528.818 96.607 527.6C96.1991 526.39 96.1401 525.185 96.43 523.982C96.7107 522.789 97.3233 521.703 98.2679 520.725C99.2124 519.746 100.281 519.091 101.472 518.758C102.655 518.436 103.862 518.452 105.094 518.808C106.317 519.173 107.461 519.869 108.526 520.897L112.627 524.856L102.903 534.929ZM107.694 521.874C106.812 521.022 105.873 520.449 104.877 520.155C103.873 519.871 102.892 519.86 101.935 520.122C100.968 520.394 100.096 520.933 99.3183 521.739C98.5405 522.544 98.0375 523.43 97.8093 524.396C97.5719 525.371 97.6175 526.351 97.9461 527.336C98.2653 528.329 98.8663 529.252 99.7488 530.104L102.727 532.98L110.673 524.749L107.694 521.874Z" fill="#FC6E46"/>
<path d="M86.8955 518.863L85.8919 517.775L96.1814 508.282L97.185 509.37L86.8955 518.863Z" fill="#FC6E46"/>
<path d="M77.5612 497.386L76.6584 496.29L80.7802 492.895C81.6381 493.035 82.4694 493.352 83.2741 493.847C84.0787 494.341 84.7947 494.969 85.422 495.731C86.3121 496.812 86.8765 497.979 87.1152 499.234C87.3539 500.488 87.2598 501.706 86.8331 502.886C86.3961 504.075 85.6579 505.098 84.6185 505.954C83.579 506.81 82.439 507.335 81.1985 507.527C79.9477 507.729 78.7296 507.592 77.5441 507.117C76.3586 506.643 75.3165 505.86 74.418 504.769C73.7398 503.946 73.2505 503.079 72.9501 502.169C72.6394 501.268 72.5464 500.368 72.671 499.471L73.9815 499.584C73.8412 501.133 74.3136 502.566 75.3987 503.884C76.1192 504.758 76.9675 505.39 77.9435 505.778C78.9008 506.164 79.8894 506.274 80.9096 506.107C81.9194 505.949 82.8463 505.522 83.6902 504.827C84.5341 504.132 85.1304 503.304 85.479 502.343C85.8277 501.382 85.9093 500.391 85.7239 499.369C85.5386 498.347 85.0856 497.399 84.365 496.524C83.4495 495.412 82.396 494.7 81.2044 494.386L77.5612 497.386Z" fill="#FC6E46"/>
<path d="M64.9777 492.47L64.1024 491.276L75.391 482.996L76.2664 484.189L64.9777 492.47Z" fill="#FC6E46"/>
<path d="M57.2583 479.239L59.9691 483.345L58.9009 484.05L52.6639 474.603L53.7321 473.898L56.4429 478.004L67.0581 470.995L67.8735 472.23L57.2583 479.239Z" fill="#FC6E46"/>
<path d="M52.6796 454.536L56.5591 461.303L60.6393 460.9L61.4052 462.236L46.0765 463.647L45.3503 462.381L54.3128 449.865L55.0887 451.219L52.6796 454.536ZM51.9072 455.602L47.0544 462.257L55.2495 461.431L51.9072 455.602Z" fill="#FC6E46"/>
<path d="M38.1537 449.081L37.4998 447.753L48.9111 442.133L45.4474 435.1L46.5957 434.534L50.7133 442.896L38.1537 449.081Z" fill="#FC6E46"/>
<path d="M42.1148 424.042C42.518 425.001 42.7519 425.987 42.8168 427.002C42.8764 428.004 42.7551 428.85 42.4527 429.541L41.177 429.449C41.4477 428.785 41.5677 428.004 41.5371 427.106C41.4942 426.213 41.2996 425.354 40.9533 424.531C40.4675 423.375 39.8942 422.597 39.2334 422.195C38.5603 421.798 37.8858 421.742 37.2098 422.026C36.6936 422.243 36.349 422.576 36.1761 423.025C35.998 423.461 35.9247 423.94 35.9562 424.462C35.9753 424.99 36.0571 425.7 36.2016 426.594C36.364 427.668 36.4561 428.541 36.4778 429.211C36.4871 429.887 36.3461 430.532 36.0548 431.147C35.7583 431.749 35.2106 432.218 34.4117 432.554C33.7603 432.828 33.0979 432.904 32.4247 432.782C31.7392 432.665 31.0868 432.317 30.4675 431.739C29.8482 431.16 29.3163 430.342 28.8718 429.285C28.5617 428.548 28.3638 427.785 28.2782 426.997C28.1751 426.201 28.1932 425.47 28.3326 424.804L29.6142 424.808C29.4851 425.498 29.4638 426.187 29.5501 426.874C29.6242 427.566 29.7852 428.207 30.0333 428.797C30.5088 429.928 31.0892 430.689 31.7746 431.081C32.4425 431.465 33.1206 431.513 33.8089 431.223C34.3251 431.006 34.6784 430.677 34.8688 430.235C35.0417 429.786 35.116 429.292 35.0916 428.753C35.0499 428.206 34.9593 427.492 34.8201 426.611C34.6556 425.566 34.5687 424.706 34.5594 424.03C34.5325 423.347 34.6674 422.705 34.9639 422.103C35.2481 421.506 35.7835 421.042 36.5701 420.711C37.2216 420.437 37.8926 420.365 38.5833 420.494C39.2565 420.616 39.9054 420.972 40.5298 421.563C41.142 422.159 41.6704 422.985 42.1148 424.042Z" fill="#FC6E46"/>
<path d="M27.8686 403.584L26.2809 398.59L27.4626 398.214L29.0503 403.208L27.8686 403.584Z" fill="#FC6E46"/>
<path d="M25.6686 371.86C25.9634 373.215 25.9303 374.504 25.5691 375.729C25.2051 376.941 24.5635 377.974 23.6442 378.829C22.7092 379.674 21.5837 380.24 20.2678 380.526C18.9519 380.812 17.6997 380.764 16.5112 380.382C15.3068 379.989 14.2858 379.31 13.4484 378.346C12.6109 377.382 12.0448 376.223 11.7499 374.868C11.5288 373.852 11.4941 372.877 11.6457 371.943C11.7973 371.01 12.1336 370.172 12.6547 369.431L13.773 370.15C12.9241 371.453 12.6769 372.92 13.0313 374.548C13.2666 375.629 13.7281 376.559 14.416 377.337C15.1039 378.116 15.933 378.665 16.9035 378.986C17.8711 379.294 18.889 379.332 19.9574 379.099C21.0257 378.867 21.9359 378.41 22.6881 377.727C23.4374 377.032 23.9632 376.188 24.2655 375.194C24.5678 374.201 24.6013 373.163 24.366 372.082C24.0088 370.44 23.1682 369.211 21.8442 368.394L22.5628 367.275C23.3446 367.733 24.0064 368.36 24.5481 369.156C25.074 369.942 25.4475 370.843 25.6686 371.86Z" fill="#FC6E46"/>
<path d="M17.958 350.223L19.0942 357.94L23.0391 359.057L23.2634 360.581L8.48042 356.289L8.26774 354.844L21.1861 346.473L21.4133 348.016L17.958 350.223ZM16.8494 350.932L9.89911 355.352L17.8284 357.581L16.8494 350.932Z" fill="#FC6E46"/>
<path d="M6.43307 339.834L6.31003 338.359L18.986 337.301L18.3342 329.488L19.6098 329.382L20.3846 338.67L6.43307 339.834Z" fill="#FC6E46"/>
<path d="M5.28256 322.291L5.23243 320.812L19.2244 320.337L19.2745 321.817L5.28256 322.291Z" fill="#FC6E46"/>
<path d="M6.34362 308.233L11.8428 308.327L11.9671 301.088L13.2469 301.11L13.1226 308.349L19.0617 308.451L19.0363 309.931L5.0384 309.691L5.2032 300.092L6.48302 300.114L6.34362 308.233Z" fill="#FC6E46"/>
<path d="M20.2356 286.001C20.1175 287.383 19.7047 288.612 18.9971 289.689C18.2774 290.752 17.3522 291.556 16.2216 292.102C15.0922 292.634 13.8566 292.843 12.5148 292.728C11.1731 292.614 9.9908 292.198 8.96808 291.482C7.94648 290.752 7.1778 289.803 6.66204 288.635C6.13413 287.453 5.9292 286.171 6.04725 284.789C6.1653 283.407 6.57699 282.191 7.2823 281.141C7.98876 280.077 8.91391 279.273 10.0578 278.728C11.1883 278.183 12.4245 277.967 13.7663 278.082C15.108 278.196 16.2964 278.619 17.3313 279.35C18.3529 280.079 19.1215 281.028 19.6373 282.197C20.1542 283.351 20.3536 284.62 20.2356 286.001ZM18.9203 285.889C19.0146 284.786 18.8539 283.769 18.4384 282.837C18.0097 281.904 17.3784 281.147 16.5448 280.567C15.6978 279.986 14.7296 279.649 13.6403 279.556C12.5509 279.463 11.5463 279.632 10.6263 280.062C9.6931 280.49 8.94269 281.129 8.3751 281.977C7.79422 282.824 7.45667 283.799 7.36246 284.901C7.26825 286.004 7.43496 287.029 7.8626 287.975C8.2781 288.907 8.90875 289.67 9.75457 290.264C10.5882 290.844 11.5498 291.181 12.6391 291.274C13.7285 291.367 14.7398 291.199 15.673 290.77C16.5941 290.327 17.3451 289.682 17.9259 288.835C18.4947 287.974 18.8261 286.992 18.9203 285.889Z" fill="#FC6E46"/>
<path d="M23.3165 260.918L18.3722 263.377C18.3556 263.739 18.3171 264.111 18.2567 264.493L17.6699 268.207L22.0555 268.899L21.8245 270.361L7.99607 268.176L8.81385 263.001C9.09268 261.236 9.73261 259.92 10.7336 259.052C11.7347 258.184 12.9727 257.867 14.4477 258.1C15.5277 258.27 16.3993 258.692 17.0626 259.363C17.7148 260.02 18.1254 260.881 18.2944 261.947L23.5693 259.318L23.3165 260.918ZM17.0059 264.336C17.2223 262.966 17.0848 261.871 16.5935 261.051C16.1021 260.231 15.3099 259.734 14.2167 259.562C13.0973 259.385 12.184 259.612 11.4769 260.242C10.7567 260.871 10.2883 261.87 10.0719 263.24L9.49136 266.914L16.4253 268.01L17.0059 264.336Z" fill="#FC6E46"/>
<path d="M14.2271 236.247L27.8642 239.414L27.5882 240.602L14.4869 246.799L25.5524 249.369L25.2176 250.81L11.5805 247.644L11.8565 246.455L24.9624 240.239L13.8968 237.669L14.2271 236.247Z" fill="#FC6E46"/>
<path d="M17.139 225.656L17.5566 224.236L30.9878 228.186L30.5702 229.606L17.139 225.656Z" fill="#FC6E46"/>
<path d="M33.471 208.726L30.8662 216.078L33.8305 218.91L33.3162 220.362L22.2572 209.654L22.7447 208.278L38.0783 206.921L37.5573 208.391L33.471 208.726ZM32.1596 208.834L23.9492 209.49L29.9155 215.168L32.1596 208.834Z" fill="#FC6E46"/>
<path d="M32.7093 183.55L35.1855 178.416C35.8284 177.083 36.6663 176.036 37.699 175.276C38.7198 174.51 39.8467 174.077 41.0796 173.975C42.3006 173.869 43.5236 174.111 44.7486 174.701C45.9735 175.292 46.9303 176.102 47.6188 177.129C48.2953 178.151 48.6576 179.303 48.7057 180.585C48.7418 181.86 48.4384 183.165 47.7954 184.498L45.3192 189.632L32.7093 183.55ZM46.6077 184.014C47.1406 182.909 47.3907 181.838 47.3581 180.801C47.3134 179.758 47.0168 178.823 46.4683 177.996C45.9078 177.163 45.1231 176.503 44.1143 176.016C43.1055 175.53 42.1068 175.329 41.1181 175.415C40.1173 175.495 39.201 175.845 38.369 176.465C37.525 177.079 36.8365 177.939 36.3036 179.044L34.5051 182.773L44.8093 187.743L46.6077 184.014Z" fill="#FC6E46"/>
<path d="M42.9567 163.318L43.6757 162.024L55.9129 168.825L55.1939 170.119L42.9567 163.318Z" fill="#FC6E46"/>
<path d="M60.4324 147.73L61.1908 146.53L65.7054 149.382C65.8412 150.24 65.8002 151.129 65.5824 152.048C65.3646 152.967 64.9922 153.844 64.4652 154.678C63.7175 155.861 62.7853 156.763 61.6686 157.382C60.5519 158.001 59.3662 158.293 58.1113 158.258C56.8451 158.215 55.6428 157.834 54.5043 157.115C53.3657 156.395 52.5108 155.477 51.9396 154.359C51.357 153.234 51.1055 152.034 51.1852 150.76C51.2648 149.485 51.682 148.251 52.4368 147.056C53.0065 146.154 53.6764 145.418 54.4466 144.848C55.2055 144.271 56.0306 143.901 56.9218 143.738L57.2251 145.018C55.7098 145.37 54.4963 146.267 53.5848 147.71C52.9796 148.668 52.6454 149.671 52.5824 150.72C52.5153 151.75 52.7205 152.723 53.1981 153.64C53.6643 154.549 54.3596 155.296 55.284 155.88C56.2083 156.464 57.1814 156.771 58.2031 156.802C59.2248 156.832 60.1919 156.599 61.1045 156.103C62.0171 155.607 62.776 154.88 63.3813 153.922C64.1503 152.705 64.4975 151.481 64.4229 150.251L60.4324 147.73Z" fill="#FC6E46"/>
<path d="M61.1634 134.24L62.0228 133.035L73.4206 141.165L72.5612 142.37L61.1634 134.24Z" fill="#FC6E46"/>
<path d="M71.3131 122.767L68.2621 126.627L67.2579 125.833L74.2778 116.953L75.282 117.746L72.2309 121.606L82.2097 129.494L81.292 130.655L71.3131 122.767Z" fill="#FC6E46"/>
<path d="M93.3411 110.686L88.1287 116.489L89.7883 120.238L88.7592 121.384L82.6211 107.267L83.5967 106.181L98.2886 110.775L97.2461 111.936L93.3411 110.686ZM92.0876 110.286L84.2479 107.76L87.5968 115.285L92.0876 110.286Z" fill="#FC6E46"/>
<path d="M93.9757 95.1825L95.032 94.1459L103.941 103.225L109.537 97.7336L110.433 98.6472L103.781 105.175L93.9757 95.1825Z" fill="#FC6E46"/>
<path d="M118.996 91.1074C118.211 91.7903 117.348 92.3213 116.405 92.7003C115.472 93.0706 114.63 93.2203 113.879 93.1495L113.568 91.9089C114.282 91.9583 115.062 91.8278 115.905 91.5175C116.74 91.1972 117.495 90.7437 118.168 90.1571C119.113 89.3341 119.674 88.5458 119.848 87.7924C120.015 87.029 119.857 86.3707 119.375 85.8177C119.008 85.3953 118.584 85.1723 118.103 85.1485C117.633 85.116 117.155 85.1964 116.669 85.3896C116.174 85.5728 115.525 85.8729 114.721 86.2899C113.752 86.7805 112.952 87.141 112.322 87.3716C111.683 87.592 111.026 87.66 110.351 87.5756C109.687 87.4824 109.07 87.109 108.501 86.4554C108.037 85.9225 107.757 85.3172 107.662 84.6397C107.559 83.9521 107.685 83.2236 108.04 82.4544C108.396 81.6851 109.006 80.9239 109.871 80.171C110.474 79.6456 111.137 79.2189 111.859 78.8907C112.582 78.5438 113.282 78.3323 113.958 78.2561L114.356 79.4744C113.66 79.568 112.999 79.7634 112.373 80.0604C111.739 80.3473 111.181 80.7009 110.698 81.1212C109.773 81.9267 109.232 82.7163 109.074 83.4898C108.918 84.2445 109.085 84.9034 109.576 85.4665C109.943 85.8889 110.367 86.1213 110.846 86.1639C111.326 86.1876 111.819 86.1035 112.323 85.9116C112.829 85.7008 113.479 85.3913 114.273 84.9831C115.214 84.5 116.003 84.1482 116.642 83.9277C117.283 83.6884 117.935 83.6154 118.6 83.7086C119.255 83.7917 119.864 84.155 120.424 84.7986C120.888 85.3315 121.167 85.9462 121.26 86.6425C121.355 87.3201 121.22 88.0479 120.854 88.8259C120.48 89.5939 119.86 90.3544 118.996 91.1074Z" fill="#FC6E46"/>
<path d="M133.967 71.1732L138.213 68.1021L138.94 69.1068L134.694 72.1779L133.967 71.1732Z" fill="#FC6E46"/>
<path d="M163.408 59.1536C162.214 59.8578 160.978 60.23 159.702 60.2704C158.437 60.304 157.255 60.0181 156.155 59.4127C155.06 58.789 154.171 57.8971 153.487 56.737C152.803 55.5769 152.457 54.3725 152.448 53.1239C152.444 51.857 152.769 50.675 153.423 49.5779C154.076 48.4808 155 47.5802 156.195 46.8761C157.09 46.3479 158.006 46.0098 158.94 45.8616C159.874 45.7134 160.774 45.7707 161.641 46.0336L161.309 47.3207C159.805 46.9225 158.335 47.1466 156.899 47.9929C155.946 48.5548 155.207 49.2843 154.684 50.1812C154.16 51.078 153.897 52.0376 153.896 53.0597C153.907 54.0751 154.189 55.0537 154.745 55.9956C155.3 56.9375 156.019 57.6588 156.902 58.1597C157.797 58.6537 158.764 58.8888 159.802 58.8648C160.84 58.8409 161.836 58.548 162.79 57.986C164.237 57.1329 165.141 55.9497 165.503 54.4365L166.79 54.7689C166.6 55.6547 166.212 56.4795 165.625 57.2432C165.043 57.9887 164.304 58.6255 163.408 59.1536Z" fill="#FC6E46"/>
<path d="M181.544 45.0581L174.571 48.5527L174.744 52.649L173.367 53.3389L172.817 37.9553L174.122 37.3012L186.116 46.9501L184.721 47.649L181.544 45.0581ZM180.523 44.2272L174.15 39.0095L174.516 47.2379L180.523 44.2272Z" fill="#FC6E46"/>
<path d="M187.804 30.8601L189.166 30.2816L194.138 41.9896L201.354 38.9251L201.855 40.1032L193.276 43.7463L187.804 30.8601Z" fill="#FC6E46"/>
<path d="M204.105 24.2764L205.494 23.7658L210.324 36.9062L208.935 37.4168L204.105 24.2764Z" fill="#FC6E46"/>
<path d="M217.789 20.8838L219.42 26.1362L226.334 23.9884L226.714 25.2107L219.8 27.3586L221.562 33.0312L220.149 33.4702L215.995 20.1005L225.163 17.2525L225.543 18.4749L217.789 20.8838Z" fill="#FC6E46"/>
<path d="M243.252 27.1188C241.902 27.4392 240.606 27.4319 239.361 27.097C238.127 26.746 237.073 26.1191 236.201 25.2161C235.342 24.3101 234.757 23.202 234.446 21.8918C234.135 20.5815 234.159 19.3286 234.519 18.1331C234.893 16.9344 235.553 15.9074 236.501 15.0519C237.459 14.1804 238.613 13.5844 239.962 13.2641C241.311 12.9437 242.595 12.9541 243.813 13.2951C245.045 13.6331 246.098 14.2601 246.973 15.176C247.845 16.0789 248.437 17.1855 248.748 18.4957C249.059 19.806 249.03 21.0669 248.66 22.2785C248.286 23.4771 247.626 24.5042 246.678 25.3597C245.743 26.2121 244.601 26.7985 243.252 27.1188ZM242.947 25.8345C244.023 25.5789 244.939 25.1079 245.694 24.4215C246.447 23.7222 246.967 22.8859 247.257 21.9126C247.544 20.9264 247.561 19.9014 247.308 18.8376C247.056 17.7739 246.581 16.8724 245.885 16.1333C245.186 15.3812 244.344 14.8683 243.361 14.5947C242.375 14.3081 241.343 14.2927 240.267 14.5483C239.19 14.804 238.269 15.2831 237.504 15.9855C236.749 16.6718 236.221 17.5097 235.922 18.499C235.632 19.4722 235.614 20.4907 235.866 21.5545C236.119 22.6182 236.595 23.5262 237.294 24.2783C238.003 25.0144 238.851 25.5257 239.837 25.8123C240.833 26.0828 241.87 26.0902 242.947 25.8345Z" fill="#FC6E46"/>
<path d="M268.038 22.1937L264.156 18.2675C263.807 18.3649 263.442 18.4447 263.06 18.5069L259.349 19.1121L260.064 23.4942L258.603 23.7325L256.349 9.915L261.521 9.07159C263.285 8.78401 264.735 8.97978 265.872 9.65888C267.01 10.338 267.699 11.4145 267.939 12.8883C268.115 13.9674 267.988 14.9271 267.558 15.7673C267.138 16.5922 266.449 17.2518 265.489 17.746L269.637 21.933L268.038 22.1937ZM262.818 17.2698C264.186 17.0466 265.183 16.5733 265.808 15.85C266.433 15.1266 266.657 14.2188 266.478 13.1266C266.296 12.008 265.795 11.2116 264.974 10.7375C264.152 10.2502 263.056 10.1181 261.688 10.3413L258.016 10.9401L259.146 17.8686L262.818 17.2698Z" fill="#FC6E46"/>
<path d="M288.625 5.83847L289.886 19.7816L288.671 19.8915L278.684 9.38822L279.707 20.702L278.233 20.8353L276.972 6.89225L278.188 6.78237L288.194 17.2838L287.171 5.96996L288.625 5.83847Z" fill="#FC6E46"/>
<path d="M299.595 5.28904L301.074 5.2412L301.527 19.2339L300.047 19.2817L299.595 5.28904Z" fill="#FC6E46"/>
<path d="M320.787 15.5009L312.989 15.3284L311.226 19.0303L309.687 18.9962L316.395 5.14123L317.854 5.17352L323.943 19.3117L322.384 19.2772L320.787 15.5009ZM320.273 14.2893L317.081 6.69678L313.555 14.1406L320.273 14.2893Z" fill="#FC6E46"/>
<path d="M344.459 6.897L350.11 7.64173C351.578 7.8351 352.834 8.30325 353.879 9.04618C354.926 9.77589 355.69 10.7104 356.172 11.8498C356.656 12.976 356.809 14.2133 356.631 15.5616C356.454 16.91 355.984 18.072 355.224 19.0476C354.465 20.01 353.484 20.7146 352.282 21.1614C351.082 21.595 349.748 21.7151 348.281 21.5217L342.63 20.777L344.459 6.897ZM348.369 20.2422C349.585 20.4025 350.681 20.3048 351.655 19.9491C352.632 19.5802 353.427 19.0059 354.041 18.226C354.657 17.433 355.038 16.4813 355.184 15.3709C355.33 14.2605 355.208 13.2492 354.817 12.337C354.428 11.4115 353.809 10.6508 352.959 10.0547C352.112 9.44536 351.08 9.06057 349.864 8.9003L345.759 8.3594L344.264 19.7013L348.369 20.2422Z" fill="#FC6E46"/>
<path d="M366.882 10.2967L368.336 10.5746L365.707 24.3256L364.253 24.0477L366.882 10.2967Z" fill="#FC6E46"/>
<path d="M387.156 22.015L388.534 22.3595L387.239 27.54C386.466 27.9377 385.609 28.1769 384.668 28.2577C383.727 28.3385 382.778 28.2592 381.82 28.0198C380.462 27.6802 379.314 27.077 378.376 26.2103C377.439 25.3436 376.79 24.3087 376.431 23.1057C376.076 21.8898 376.061 20.6286 376.388 19.3222C376.715 18.0157 377.32 16.9163 378.202 16.0238C379.089 15.1184 380.149 14.504 381.385 14.1807C382.62 13.8574 383.923 13.8672 385.294 14.2101C386.329 14.4688 387.238 14.8747 388.02 15.4278C388.806 15.9679 389.416 16.6357 389.849 17.4312L388.728 18.12C387.92 16.7908 386.688 15.9192 385.032 15.5052C383.933 15.2303 382.875 15.227 381.86 15.4953C380.861 15.7539 380 16.2535 379.279 16.994C378.561 17.7216 378.07 18.6157 377.804 19.6764C377.539 20.737 377.552 21.7573 377.843 22.7372C378.134 23.717 378.658 24.5627 379.415 25.2742C380.171 25.9857 381.099 26.4789 382.199 26.7538C383.596 27.1032 384.867 27.0499 386.011 26.594L387.156 22.015Z" fill="#FC6E46"/>
<path d="M400.198 18.4867L401.611 18.9258L397.458 32.2955L396.044 31.8565L400.198 18.4867Z" fill="#FC6E46"/>
<path d="M414.271 24.5352L409.65 22.8456L410.09 21.6434L420.721 25.5308L420.282 26.733L415.661 25.0434L411.293 36.9899L409.903 36.4816L414.271 24.5352Z" fill="#FC6E46"/>
<path d="M432.64 41.6748L425.497 38.5406L422.456 41.2903L421.046 40.6715L432.532 30.4232L433.869 31.0098L434.104 46.4015L432.675 45.7747L432.64 41.6748ZM432.628 40.359L432.572 32.1227L426.474 37.6587L432.628 40.359Z" fill="#FC6E46"/>
<path d="M447.563 37.4246L448.878 38.1034L443.044 49.4066L450.011 53.0024L449.424 54.1398L441.142 49.8653L447.563 37.4246Z" fill="#FC6E46"/>
<path d="M459.265 59.9117C458.371 59.3805 457.596 58.7265 456.941 57.9496C456.297 57.1796 455.892 56.4268 455.724 55.6912L456.805 55.0073C456.982 55.7017 457.349 56.4009 457.908 57.105C458.474 57.7977 459.14 58.3722 459.909 58.8284C460.986 59.4685 461.91 59.7537 462.68 59.684C463.457 59.6029 464.033 59.247 464.408 58.6166C464.694 58.1351 464.773 57.6626 464.645 57.1989C464.529 56.7421 464.303 56.3132 463.967 55.9122C463.638 55.4998 463.15 54.9771 462.502 54.3443C461.733 53.5771 461.14 52.9302 460.724 52.4039C460.315 51.866 460.044 51.2635 459.914 50.5964C459.794 49.9361 459.956 49.2333 460.398 48.4882C460.759 47.8807 461.246 47.4258 461.86 47.1235C462.481 46.8098 463.212 46.7014 464.054 46.7983C464.896 46.8952 465.81 47.2365 466.796 47.8221C467.483 48.2307 468.096 48.7265 468.634 49.3096C469.19 49.8879 469.61 50.4863 469.894 51.1048L468.861 51.8639C468.554 51.2318 468.162 50.6653 467.684 50.1644C467.213 49.6519 466.702 49.2323 466.152 48.9054C465.098 48.2789 464.178 48.012 463.394 48.1046C462.629 48.1926 462.055 48.5575 461.674 49.1995C461.388 49.6809 461.3 50.1558 461.409 50.6241C461.537 51.0877 461.771 51.5292 462.111 51.9484C462.47 52.363 462.967 52.8834 463.603 53.5094C464.357 54.2515 464.938 54.8915 465.347 55.4294C465.775 55.9626 466.049 56.5594 466.168 57.2197C466.294 57.8685 466.14 58.5598 465.704 59.2934C465.343 59.901 464.846 60.3582 464.214 60.6651C463.601 60.9674 462.867 61.0666 462.014 60.9629C461.167 60.8477 460.251 60.4973 459.265 59.9117Z" fill="#FC6E46"/>
<path d="M482.884 67.8912L487.129 70.9622L486.403 71.967L482.157 68.8959L482.884 67.8912Z" fill="#FC6E46"/>
<path d="M503.515 92.0907C502.472 91.1766 501.732 90.1197 501.294 88.9202C500.866 87.7294 500.768 86.5171 500.998 85.2831C501.248 84.0478 501.817 82.9239 502.704 81.9113C503.592 80.8987 504.628 80.1929 505.811 79.794C507.013 79.3938 508.237 79.3322 509.484 79.6094C510.73 79.8866 511.875 80.4822 512.917 81.3964C513.699 82.082 514.307 82.8452 514.74 83.686C515.173 84.5268 515.401 85.4 515.422 86.3056L514.096 86.3928C514.003 84.8399 513.331 83.514 512.077 82.4153C511.245 81.6857 510.321 81.2126 509.305 80.9959C508.29 80.7791 507.296 80.8302 506.325 81.1491C505.364 81.4768 504.523 82.0517 503.802 82.8738C503.081 83.6959 502.622 84.6048 502.422 85.6005C502.233 86.605 502.313 87.5966 502.66 88.5753C503.008 89.554 503.598 90.4082 504.43 91.1377C505.693 92.2452 507.1 92.7339 508.651 92.6037L508.738 93.9302C507.837 94.0272 506.932 93.9165 506.023 93.5983C505.133 93.2789 504.297 92.7763 503.515 92.0907Z" fill="#FC6E46"/>
<path d="M522.579 104.903L517.077 99.3736L513.241 100.821L512.155 99.7291L526.593 94.3909L527.623 95.4258L522.213 109.837L521.113 108.732L522.579 104.903ZM523.048 103.674L526.009 95.9875L518.308 98.91L523.048 103.674Z" fill="#FC6E46"/>
<path d="M538.023 106.404L538.998 107.517L529.435 115.904L534.604 121.798L533.642 122.642L527.497 115.635L538.023 106.404Z" fill="#FC6E46"/>
<path d="M549.378 119.825L550.298 120.985L539.33 129.685L538.41 128.526L549.378 119.825Z" fill="#FC6E46"/>
<path d="M556.883 131.759L552.405 134.953L556.61 140.847L555.567 141.591L551.363 135.696L546.527 139.146L545.668 137.941L557.066 129.811L562.64 137.627L561.598 138.37L556.883 131.759Z" fill="#FC6E46"/>
<path d="M558.932 157.894C558.205 156.713 557.806 155.479 557.735 154.193C557.682 152.911 557.947 151.714 558.532 150.603C559.124 149.503 559.993 148.601 561.14 147.895C562.287 147.189 563.484 146.821 564.733 146.788C565.988 146.768 567.17 147.074 568.279 147.706C569.407 148.343 570.334 149.252 571.061 150.433C571.787 151.614 572.179 152.837 572.237 154.101C572.301 155.376 572.035 156.573 571.439 157.691C570.855 158.802 569.989 159.71 568.842 160.416C567.695 161.121 566.488 161.488 565.222 161.516C563.966 161.536 562.784 161.23 561.675 160.598C560.573 159.977 559.658 159.076 558.932 157.894ZM560.056 157.203C560.636 158.145 561.37 158.868 562.258 159.37C563.158 159.866 564.115 160.099 565.13 160.069C566.157 160.033 567.135 159.728 568.067 159.155C568.998 158.582 569.705 157.849 570.19 156.957C570.685 156.057 570.909 155.098 570.861 154.078C570.824 153.052 570.516 152.067 569.936 151.125C569.356 150.182 568.613 149.458 567.707 148.951C566.818 148.448 565.858 148.21 564.824 148.235C563.809 148.264 562.836 148.566 561.905 149.139C560.974 149.711 560.26 150.448 559.765 151.347C559.288 152.251 559.068 153.216 559.104 154.243C559.159 155.274 559.476 156.26 560.056 157.203Z" fill="#FC6E46"/>
<path d="M571.368 179.894L573.882 174.977C573.68 174.676 573.49 174.355 573.311 174.012L571.575 170.677L567.637 172.727L566.953 171.414L579.371 164.949L581.791 169.597C582.616 171.182 582.884 172.62 582.595 173.913C582.306 175.206 581.499 176.197 580.175 176.887C579.205 177.392 578.254 177.571 577.321 177.426C576.406 177.286 575.564 176.837 574.794 176.081L572.116 181.331L571.368 179.894ZM574.41 173.394C575.051 174.624 575.812 175.423 576.695 175.79C577.578 176.157 578.51 176.085 579.491 175.574C580.496 175.051 581.096 174.325 581.289 173.398C581.495 172.464 581.277 171.382 580.637 170.152L578.919 166.853L572.692 170.095L574.41 173.394Z" fill="#FC6E46"/>
<path d="M593.345 194.327L580.497 199.888L580.013 198.769L586.862 185.997L576.437 190.51L575.849 189.151L588.697 183.589L589.182 184.709L582.34 197.5L592.765 192.987L593.345 194.327Z" fill="#FC6E46"/>
<path d="M597.301 204.573L597.809 205.963L584.661 210.773L584.153 209.383L597.301 204.573Z" fill="#FC6E46"/>
<path d="M594.235 227.897L591.958 220.437L587.891 219.922L587.441 218.449L602.7 220.483L603.126 221.879L591.604 232.088L591.149 230.595L594.235 227.897ZM595.226 227.03L601.437 221.621L593.264 220.603L595.226 227.03Z" fill="#FC6E46"/>
<path d="M609.817 247.686L610.878 253.287C611.154 254.741 611.102 256.08 610.724 257.306C610.359 258.528 609.71 259.547 608.779 260.361C607.861 261.173 606.734 261.706 605.398 261.959C604.061 262.212 602.811 262.13 601.646 261.713C600.495 261.294 599.518 260.583 598.718 259.582C597.93 258.577 597.399 257.348 597.123 255.894L596.062 250.294L609.817 247.686ZM598.366 255.577C598.594 256.782 599.03 257.792 599.673 258.607C600.329 259.419 601.123 259.994 602.056 260.333C603.002 260.669 604.025 260.733 605.126 260.525C606.226 260.316 607.148 259.883 607.892 259.227C608.649 258.567 609.178 257.741 609.478 256.748C609.792 255.752 609.834 254.652 609.606 253.446L608.835 249.379L597.595 251.509L598.366 255.577Z" fill="#FC6E46"/>
<path d="M613.607 270.047L613.798 271.514L599.915 273.322L599.724 271.854L613.607 270.047Z" fill="#FC6E46"/>
<path d="M608.823 292.97L608.927 294.387L603.602 294.778C602.982 294.168 602.487 293.429 602.115 292.561C601.744 291.692 601.522 290.766 601.45 289.782C601.347 288.386 601.561 287.107 602.09 285.945C602.62 284.783 603.4 283.843 604.43 283.126C605.474 282.407 606.667 281.999 608.01 281.9C609.353 281.802 610.587 282.032 611.711 282.591C612.848 283.149 613.763 283.964 614.457 285.036C615.151 286.108 615.55 287.349 615.653 288.759C615.731 289.823 615.63 290.813 615.35 291.729C615.083 292.644 614.639 293.432 614.019 294.093L613.015 293.244C614.024 292.06 614.466 290.617 614.341 288.915C614.258 287.785 613.93 286.78 613.357 285.899C612.799 285.031 612.055 284.37 611.126 283.917C610.211 283.463 609.207 283.276 608.117 283.356C607.027 283.436 606.062 283.768 605.222 284.351C604.383 284.934 603.743 285.696 603.305 286.638C602.866 287.579 602.688 288.615 602.771 289.745C602.876 291.181 603.325 292.372 604.116 293.316L608.823 292.97Z" fill="#FC6E46"/>
<path d="M616.256 304.252L616.282 305.731L602.284 305.972L602.258 304.492L616.256 304.252Z" fill="#FC6E46"/>
<path d="M614.917 319.511L615.075 314.594L616.355 314.635L615.99 325.949L614.711 325.908L614.869 320.99L602.156 320.581L602.204 319.102L614.917 319.511Z" fill="#FC6E46"/>
<path d="M604.388 342.322L605.129 334.557L601.566 332.529L601.712 330.996L615.041 338.697L614.902 340.151L600.357 345.192L600.506 343.639L604.388 342.322ZM605.634 341.898L613.439 339.268L606.273 335.209L605.634 341.898Z" fill="#FC6E46"/>
<path d="M613.096 355.165L612.863 356.626L600.302 354.624L599.067 362.366L597.803 362.164L599.271 352.961L613.096 355.165Z" fill="#FC6E46"/>
<path d="M595.402 373.317C595.626 372.302 596.005 371.362 596.538 370.496C597.068 369.644 597.656 369.023 598.302 368.633L599.29 369.446C598.686 369.831 598.137 370.399 597.643 371.15C597.162 371.904 596.825 372.717 596.632 373.59C596.361 374.813 596.38 375.78 596.687 376.49C597.007 377.203 597.526 377.638 598.242 377.796C598.788 377.917 599.262 377.845 599.662 377.578C600.06 377.325 600.396 376.976 600.672 376.531C600.961 376.09 601.305 375.463 601.703 374.65C602.191 373.679 602.619 372.913 602.989 372.353C603.372 371.796 603.859 371.351 604.452 371.018C605.042 370.697 605.76 370.631 606.606 370.818C607.296 370.971 607.881 371.291 608.36 371.779C608.852 372.271 609.184 372.931 609.355 373.761C609.527 374.591 609.489 375.566 609.241 376.686C609.068 377.467 608.789 378.204 608.404 378.897C608.029 379.606 607.592 380.192 607.093 380.655L606.049 379.912C606.553 379.423 606.968 378.873 607.295 378.262C607.634 377.655 607.873 377.038 608.011 376.413C608.276 375.216 608.242 374.259 607.908 373.544C607.585 372.844 607.059 372.413 606.33 372.252C605.783 372.131 605.304 372.196 604.894 372.447C604.494 372.713 604.148 373.074 603.856 373.528C603.574 373.998 603.236 374.634 602.84 375.434C602.371 376.381 601.945 377.134 601.563 377.691C601.19 378.264 600.709 378.711 600.119 379.031C599.543 379.354 598.838 379.424 598.004 379.239C597.315 379.087 596.725 378.758 596.236 378.254C595.756 377.766 595.432 377.1 595.264 376.257C595.108 375.417 595.154 374.437 595.402 373.317Z" fill="#FC6E46"/>
<path d="M595.216 398.247L593.629 403.241L592.447 402.865L594.035 397.871L595.216 398.247Z" fill="#FC6E46"/>
<path d="M578.691 425.416C579.233 424.14 580.005 423.106 581.007 422.315C582.004 421.535 583.124 421.062 584.369 420.895C585.62 420.746 586.865 420.934 588.105 421.46C589.345 421.986 590.339 422.749 591.088 423.748C591.845 424.764 592.286 425.908 592.413 427.178C592.54 428.449 592.333 429.722 591.791 430.999C591.384 431.956 590.85 432.772 590.187 433.447C589.524 434.121 588.766 434.611 587.912 434.915L587.414 433.682C588.86 433.108 589.909 432.054 590.56 430.52C590.993 429.501 591.153 428.475 591.041 427.443C590.929 426.41 590.569 425.483 589.962 424.66C589.35 423.85 588.541 423.231 587.534 422.804C586.528 422.377 585.521 422.225 584.513 422.347C583.5 422.482 582.583 422.868 581.762 423.504C580.941 424.141 580.315 424.968 579.882 425.987C579.226 427.534 579.202 429.023 579.811 430.454L578.579 430.952C578.205 430.127 578.026 429.233 578.044 428.27C578.069 427.325 578.284 426.373 578.691 425.416Z" fill="#FC6E46"/>
<path d="M572.49 447.532L576.019 440.576L573.444 437.386L574.14 436.013L583.73 448.054L583.069 449.356L567.688 448.73L568.394 447.338L572.49 447.532ZM573.804 447.594L582.031 448L576.845 441.601L573.804 447.594Z" fill="#FC6E46"/>
<path d="M575.898 462.67L575.147 463.945L564.188 457.488L560.207 464.242L559.105 463.592L563.836 455.563L575.898 462.67Z" fill="#FC6E46"/>
<path d="M566.706 477.656L565.892 478.892L554.196 471.199L555.009 469.962L566.706 477.656Z" fill="#FC6E46"/>
<path d="M557.721 488.52L553.286 485.266L549.003 491.104L547.971 490.347L552.254 484.509L547.464 480.996L548.339 479.803L559.628 488.083L553.95 495.824L552.918 495.067L557.721 488.52Z" fill="#FC6E46"/>
<path d="M533.54 498.646C534.434 497.586 535.481 496.821 536.681 496.35C537.882 495.898 539.102 495.776 540.34 495.984C541.57 496.201 542.699 496.744 543.728 497.613C544.757 498.481 545.482 499.503 545.904 500.679C546.316 501.864 546.396 503.083 546.142 504.335C545.89 505.605 545.317 506.77 544.423 507.83C543.528 508.889 542.49 509.644 541.308 510.095C540.116 510.555 538.897 510.677 537.648 510.461C536.41 510.254 535.277 509.716 534.248 508.847C533.218 507.979 532.492 506.947 532.07 505.753C531.657 504.567 531.577 503.349 531.831 502.097C532.076 500.856 532.646 499.705 533.54 498.646ZM534.549 499.497C533.835 500.343 533.379 501.266 533.179 502.267C532.991 503.277 533.069 504.259 533.415 505.213C533.771 506.177 534.366 507.011 535.202 507.716C536.038 508.421 536.955 508.864 537.954 509.044C538.964 509.233 539.945 509.145 540.898 508.781C541.862 508.425 542.7 507.824 543.414 506.978C544.128 506.133 544.583 505.2 544.781 504.18C544.98 503.179 544.906 502.192 544.558 501.219C544.213 500.264 543.622 499.434 542.786 498.729C541.951 498.024 541.028 497.577 540.019 497.388C539.011 497.217 538.025 497.31 537.062 497.666C536.1 498.041 535.262 498.651 534.549 499.497Z" fill="#FC6E46"/>
<path d="M516.539 517.343L521.995 518.192C522.217 517.906 522.464 517.624 522.734 517.347L525.357 514.654L522.177 511.556L523.21 510.496L533.238 520.266L529.581 524.019C528.334 525.299 527.051 526.004 525.733 526.134C524.415 526.264 523.221 525.808 522.151 524.766C521.368 524.003 520.9 523.156 520.746 522.224C520.593 521.312 520.755 520.372 521.233 519.404L515.408 518.503L516.539 517.343ZM523.664 518.198C522.696 519.191 522.176 520.165 522.104 521.118C522.031 522.071 522.391 522.934 523.184 523.706C523.996 524.497 524.872 524.839 525.814 524.733C526.765 524.636 527.724 524.09 528.692 523.097L531.288 520.433L526.26 515.534L523.664 518.198Z" fill="#FC6E46"/>
<path d="M509.71 542.734L500.406 532.272L501.318 531.462L515.593 533.969L508.043 525.481L509.149 524.497L518.453 534.958L517.541 535.769L503.252 533.275L510.801 541.763L509.71 542.734Z" fill="#FC6E46"/>
<path d="M501.217 549.698L500.056 550.616L491.372 539.634L492.533 538.716L501.217 549.698Z" fill="#FC6E46"/>
<path d="M478.106 554.087L484.478 549.589L483.694 545.565L484.953 544.677L487.797 559.805L486.604 560.647L473.302 552.9L474.577 552L478.106 554.087ZM479.239 554.756L486.32 558.962L484.729 550.881L479.239 554.756Z" fill="#FC6E46"/>
<path d="M464.188 575.08L459.201 577.841C457.906 578.558 456.618 578.928 455.336 578.952C454.06 578.988 452.89 578.691 451.825 578.062C450.766 577.444 449.908 576.54 449.249 575.35C448.59 574.16 448.277 572.947 448.308 571.71C448.346 570.485 448.715 569.336 449.416 568.262C450.124 567.2 451.125 566.31 452.419 565.593L457.406 562.832L464.188 575.08ZM453.109 566.674C452.036 567.268 451.214 567.998 450.641 568.864C450.075 569.741 449.777 570.676 449.748 571.668C449.724 572.671 449.984 573.663 450.526 574.643C451.069 575.623 451.768 576.363 452.625 576.864C453.488 577.377 454.438 577.621 455.476 577.595C456.52 577.581 457.578 577.277 458.651 576.682L462.273 574.677L456.731 564.669L453.109 566.674Z" fill="#FC6E46"/>
<path d="M444.137 585.678L442.803 586.319L436.741 573.7L438.075 573.059L444.137 585.678Z" fill="#FC6E46"/>
<path d="M420.868 588.311L419.556 588.853L417.517 583.917C417.902 583.138 418.449 582.436 419.158 581.811C419.866 581.187 420.677 580.686 421.589 580.31C422.883 579.775 424.164 579.578 425.434 579.717C426.703 579.856 427.839 580.303 428.843 581.057C429.852 581.823 430.614 582.829 431.128 584.073C431.642 585.318 431.809 586.561 431.63 587.804C431.456 589.059 430.968 590.184 430.167 591.178C429.366 592.172 428.313 592.939 427.006 593.479C426.02 593.886 425.048 594.1 424.09 594.121C423.137 594.154 422.25 593.979 421.429 593.597L421.92 592.377C423.361 592.965 424.869 592.933 426.447 592.282C427.494 591.849 428.347 591.223 429.003 590.404C429.653 589.601 430.048 588.688 430.187 587.664C430.332 586.652 430.196 585.641 429.778 584.631C429.361 583.62 428.744 582.807 427.927 582.193C427.111 581.578 426.187 581.209 425.155 581.087C424.124 580.965 423.085 581.12 422.037 581.553C420.706 582.102 419.716 582.901 419.067 583.948L420.868 588.311Z" fill="#FC6E46"/>
<path d="M412.481 598.901L411.083 599.389L406.473 586.169L407.871 585.682L412.481 598.901Z" fill="#FC6E46"/>
<path d="M397.569 602.406L402.289 601.017L402.65 602.245L391.79 605.44L391.429 604.212L396.149 602.824L392.558 590.621L393.978 590.203L397.569 602.406Z" fill="#FC6E46"/>
<path d="M372.609 599.546L380.215 597.82L381.026 593.8L382.527 593.46L379.385 608.529L377.962 608.852L368.621 596.616L370.142 596.271L372.609 599.546ZM373.401 600.597L378.342 607.187L379.954 599.109L373.401 600.597Z" fill="#FC6E46"/>
<path d="M363.137 611.836L361.676 612.073L359.646 599.516L351.906 600.767L351.702 599.503L360.903 598.016L363.137 611.836Z" fill="#FC6E46"/>
<path d="M340.358 600.713C341.392 600.609 342.404 600.674 343.393 600.909C344.368 601.146 345.142 601.51 345.714 602.001L345.252 603.194C344.697 602.741 343.985 602.397 343.117 602.163C342.251 601.943 341.373 601.877 340.484 601.967C339.237 602.093 338.325 602.413 337.747 602.927C337.17 603.454 336.919 604.083 336.993 604.812C337.049 605.37 337.266 605.797 337.645 606.093C338.01 606.392 338.447 606.602 338.955 606.725C339.465 606.861 340.168 606.991 341.065 607.115C342.14 607.274 343.001 607.442 343.649 607.618C344.297 607.807 344.873 608.13 345.375 608.589C345.864 609.049 346.152 609.71 346.239 610.572C346.31 611.275 346.188 611.931 345.875 612.539C345.562 613.16 345.039 613.682 344.304 614.105C343.569 614.527 342.632 614.796 341.491 614.911C340.695 614.992 339.907 614.957 339.129 614.808C338.338 614.674 337.644 614.442 337.048 614.114L337.427 612.89C338.05 613.215 338.702 613.438 339.384 613.556C340.067 613.688 340.727 613.722 341.364 613.658C342.585 613.534 343.482 613.203 344.058 612.662C344.621 612.136 344.865 611.502 344.79 610.759C344.734 610.202 344.522 609.767 344.156 609.456C343.777 609.159 343.327 608.943 342.804 608.808C342.269 608.688 341.56 608.566 340.676 608.441C339.629 608.292 338.781 608.123 338.132 607.934C337.471 607.759 336.897 607.442 336.408 606.982C335.921 606.536 335.634 605.888 335.548 605.039C335.477 604.336 335.605 603.673 335.93 603.05C336.244 602.442 336.775 601.926 337.523 601.502C338.272 601.092 339.217 600.829 340.358 600.713Z" fill="#FC6E46"/>
</svg>
