<svg width="547" height="588" viewBox="0 0 547 588" fill="none" xmlns="http://www.w3.org/2000/svg">
<path d="M526 568H196C190.477 568 186 572.477 186 578C186 583.523 190.477 588 196 588H526C531.523 588 536 583.523 536 578C536 572.477 531.523 568 526 568Z" fill="#E4EBF7"/>
<path fill-rule="evenodd" clip-rule="evenodd" d="M523.475 494.009H492.965V389.478C492.965 381.158 499.759 374.413 508.14 374.413H508.299C516.681 374.413 523.475 381.158 523.475 389.478V494.009Z" fill="#7CB305"/>
<path fill-rule="evenodd" clip-rule="evenodd" d="M538.647 519.596H508.048V465.012C508.048 456.911 514.692 450.345 522.888 450.345H523.807C532.003 450.345 538.647 456.911 538.647 465.012V519.596Z" fill="#5B8C00"/>
<path fill-rule="evenodd" clip-rule="evenodd" d="M497.44 493.955H466.637V434.608C466.637 426.462 473.299 419.858 481.516 419.858H482.561C490.778 419.858 497.44 426.462 497.44 434.608V493.955Z" fill="#7CB305"/>
<path fill-rule="evenodd" clip-rule="evenodd" d="M540.467 580.653H460.336C457.169 580.653 454.602 578.112 454.602 574.978V496.152C454.602 493.018 457.169 490.477 460.336 490.477H540.467C543.634 490.477 546.202 493.018 546.202 496.152V574.978C546.202 578.112 543.634 580.653 540.467 580.653Z" fill="#253368"/>
<path d="M18.261 178.492C17.3437 178.492 16.5009 177.987 16.0714 177.176C11.7959 169.118 10.4995 159.821 12.2232 149.549C13.8552 139.817 18.1258 129.615 24.9168 119.222C38.7186 98.1003 61.4721 78.4225 88.9839 63.8144C116.496 49.2063 145.541 41.3868 170.773 41.7852C183.185 41.9807 194.029 44.1583 203.002 48.2575C212.48 52.5861 219.453 58.8654 223.733 66.9263C224.373 68.1336 223.914 69.6316 222.707 70.2723C221.499 70.9129 220.001 70.4536 219.361 69.2463C215.604 62.1728 209.41 56.625 200.948 52.7599C192.597 48.948 182.419 46.9201 170.694 46.7245C146.286 46.3334 118.091 53.967 91.3063 68.1768C64.5212 82.3866 42.4123 101.495 29.0596 121.931C22.6451 131.749 18.6231 141.314 17.1046 150.367C15.5644 159.541 16.6894 167.78 20.4458 174.854C20.8521 175.619 20.8288 176.541 20.3845 177.285C19.9403 178.029 19.1395 178.487 18.2731 178.492H18.261Z" fill="#FF7946"/>
<path opacity="0.33" d="M116.008 203.174C164.864 203.174 204.47 163.568 204.47 114.712C204.47 65.8559 164.864 26.25 116.008 26.25C67.1515 26.25 27.5457 65.8559 27.5457 114.712C27.5457 163.568 67.1515 203.174 116.008 203.174Z" fill="#4E5C93"/>
<path d="M175.491 136.186C180.7 122.29 183.308 117.078 175.491 114.715C167.674 112.351 156.383 127.5 145.953 120.192C135.524 112.885 149.427 97.1033 145.084 88.0695C140.741 79.0357 135.529 77.9952 138.136 60.9246C139.459 52.2626 147.477 42.6663 155.055 35.3176C142.912 29.3357 129.554 26.2329 116.018 26.2499C112.482 26.2499 108.95 26.4597 105.439 26.8777C112.776 42.956 99.4639 54.6816 89.5055 70.9507C77.3453 90.8313 81.6884 103.182 106.875 107.967C132.062 112.752 129.457 143.134 106.875 150.939C84.2933 158.744 91.2412 126.633 77.3453 126.476C63.4494 126.319 49.5535 123.159 48.6844 110.145C48.2016 102.765 38.7598 95.8624 30.6844 91.2707C28.5942 98.9097 27.5387 106.795 27.5459 114.715C27.5459 163.57 67.1527 203.177 116.011 203.177C138.663 203.206 160.457 194.515 176.874 178.907C170.65 164.485 171.671 146.372 175.491 136.186Z" fill="#597EF7"/>
<path d="M48.6841 110.145C49.5532 123.159 63.4491 126.319 77.345 126.476C91.241 126.633 84.293 158.768 106.875 150.951C129.457 143.134 132.062 112.752 106.875 107.979C81.6881 103.206 77.345 90.8385 89.5052 70.9627C99.454 54.6937 112.766 42.9584 105.439 26.8897C69.4242 31.1676 40.0559 57.0837 30.6841 91.2706C38.7643 95.8624 48.1916 102.764 48.6841 110.145Z" fill="#4E5C93"/>
<path d="M48.6841 110.145C49.5532 123.159 63.4491 126.319 77.345 126.476C91.241 126.633 84.293 158.768 106.875 150.951C129.457 143.134 132.062 112.752 106.875 107.979C81.6881 103.206 77.345 90.8385 89.5052 70.9627C99.454 54.6937 112.766 42.9584 105.439 26.8897C69.4242 31.1676 40.0559 57.0837 30.6841 91.2706C38.7643 95.8624 48.1916 102.764 48.6841 110.145Z" fill="#E4EBF7"/>
<path d="M204.47 114.715C204.47 79.8758 184.331 49.7422 155.062 35.3176C147.484 42.6663 139.466 52.2626 138.143 60.9246C135.536 77.9952 140.748 79.0308 145.091 88.0695C149.434 97.1081 135.536 112.885 145.953 120.192C156.37 127.5 167.681 112.349 175.49 114.715C183.3 117.08 180.7 122.29 175.49 136.186C171.671 146.372 170.65 164.485 176.874 178.917C194.518 162.228 204.502 139.002 204.47 114.715Z" fill="#7CB305"/>
<path d="M149.664 180.575C148.526 180.578 147.532 179.804 147.257 178.7C146.981 177.596 147.494 176.446 148.5 175.914C175.297 161.692 197.392 142.598 210.744 122.172C217.171 112.356 221.181 102.779 222.699 93.7331C224.24 84.5593 223.117 76.3198 219.361 69.2463C218.72 68.0389 219.179 66.5409 220.387 65.9002C221.594 65.2596 223.092 65.7189 223.733 66.9262C228.011 74.9847 229.307 84.2793 227.595 94.5539C225.961 104.285 221.69 114.488 214.902 124.878C201.1 146.002 178.346 165.678 150.832 180.286C150.473 180.477 150.071 180.577 149.664 180.575Z" fill="#FAAD14"/>
<path d="M71.363 213.604C82.1668 213.604 90.9249 204.845 90.9249 194.042C90.9249 183.238 82.1668 174.48 71.363 174.48C60.5592 174.48 51.801 183.238 51.801 194.042C51.801 204.845 60.5592 213.604 71.363 213.604Z" fill="#FAAD14"/>
<path fill-rule="evenodd" clip-rule="evenodd" d="M344.83 513.873H414.84V499.564H344.83V513.873Z" fill="#253368"/>
<path fill-rule="evenodd" clip-rule="evenodd" d="M397.42 353.444L416.168 584.461H432.266L413.518 353.444H397.42Z" fill="#597EF7"/>
<path fill-rule="evenodd" clip-rule="evenodd" d="M346.151 353.444L327.403 584.461H343.502L362.25 353.444H346.151Z" fill="#597EF7"/>
<path fill-rule="evenodd" clip-rule="evenodd" d="M339.317 368.48C331.011 368.48 324.279 361.748 324.279 353.444C324.279 345.14 331.011 338.406 339.317 338.406H421.824C430.128 338.406 436.862 345.14 436.862 353.444C436.862 361.748 430.128 368.48 421.824 368.48H339.317Z" fill="#A3B5D6"/>
<g opacity="0.3">
<path fill-rule="evenodd" clip-rule="evenodd" d="M151.462 435.624C110.534 435.624 77.3552 402.447 77.3552 361.519C77.3552 320.591 110.534 287.414 151.462 287.414C192.387 287.414 225.567 320.591 225.567 361.519C225.567 402.447 192.387 435.624 151.462 435.624Z" fill="#A3B5D6"/>
<mask id="mask0" mask-type="alpha" maskUnits="userSpaceOnUse" x="77" y="287" width="149" height="149">
<path fill-rule="evenodd" clip-rule="evenodd" d="M151.462 435.625C110.534 435.625 77.3552 402.448 77.3552 361.52C77.3552 320.592 110.534 287.415 151.462 287.415C192.387 287.415 225.567 320.592 225.567 361.52C225.567 402.448 192.387 435.625 151.462 435.625Z" fill="#A3B5D6"/>
</mask>
<g mask="url(#mask0)">
<path fill-rule="evenodd" clip-rule="evenodd" d="M190.769 356.064V445.235C190.769 446.542 189.071 447.205 188.137 446.29L182.697 439.976L176.966 445.705C175.824 446.847 173.976 446.859 172.82 445.731L166.907 439.976L161.294 445.662C160.149 446.822 158.279 446.834 157.119 445.687L151.338 439.976L145.503 445.723C144.353 446.854 142.507 446.854 141.359 445.72L135.535 439.976L129.726 445.705C128.571 446.844 126.714 446.837 125.567 445.691L119.85 439.976L114.547 446.364C113.617 447.289 112.153 446.631 112.153 445.317V356.064H190.769Z" fill="#E4EBF7"/>
<path fill-rule="evenodd" clip-rule="evenodd" d="M112.03 355.786H190.892V351.153C190.892 349.523 189.57 348.202 187.94 348.202H114.981C113.35 348.202 112.03 349.523 112.03 351.153V355.786Z" fill="#4E5C93"/>
<mask id="mask1" mask-type="alpha" maskUnits="userSpaceOnUse" x="77" y="287" width="149" height="149">
<path d="M151.462 287.416C110.533 287.416 77.3555 320.593 77.3555 361.519C77.3555 402.448 110.533 435.626 151.462 435.626C192.388 435.626 225.567 402.448 225.567 361.519" fill="white"/>
</mask>
<g mask="url(#mask1)">
<path fill-rule="evenodd" clip-rule="evenodd" d="M168.971 379.793H180.778C181.865 379.793 182.746 378.912 182.746 377.825V366.018C182.746 364.933 181.865 364.052 180.778 364.052H168.971C167.884 364.052 167.004 364.933 167.004 366.018V377.825C167.004 378.912 167.884 379.793 168.971 379.793Z" fill="#4E5C93"/>
</g>
<path fill-rule="evenodd" clip-rule="evenodd" d="M173.89 379.791C174.433 379.791 174.874 379.351 174.874 378.808V372.905C174.874 372.361 174.433 371.92 173.89 371.92H167.988C167.444 371.92 167.004 372.361 167.004 372.905V378.808C167.004 379.351 167.444 379.791 167.988 379.791H173.89Z" fill="#A3B5D6"/>
<path fill-rule="evenodd" clip-rule="evenodd" d="M120.492 391.5H181.908C182.303 391.5 182.622 391.18 182.622 390.785V388.28C182.622 387.885 182.303 387.565 181.908 387.565H120.492C120.099 387.565 119.778 387.885 119.778 388.28V390.785C119.778 391.18 120.099 391.5 120.492 391.5Z" fill="#A3B5D6"/>
<path fill-rule="evenodd" clip-rule="evenodd" d="M120.492 403.209H181.908C182.303 403.209 182.622 402.889 182.622 402.495V399.989C182.622 399.594 182.303 399.274 181.908 399.274H120.492C120.099 399.274 119.778 399.594 119.778 399.989V402.495C119.778 402.889 120.099 403.209 120.492 403.209Z" fill="#CCD7EE"/>
<path fill-rule="evenodd" clip-rule="evenodd" d="M120.492 414.918H181.908C182.303 414.918 182.622 414.598 182.622 414.204V411.698C182.622 411.303 182.303 410.983 181.908 410.983H120.492C120.099 410.983 119.778 411.303 119.778 411.698V414.204C119.778 414.598 120.099 414.918 120.492 414.918Z" fill="#E4EBF7"/>
<path fill-rule="evenodd" clip-rule="evenodd" d="M112.232 364.106H146.354V339.314H112.232V364.106Z" fill="#253368"/>
<path fill-rule="evenodd" clip-rule="evenodd" d="M112.232 376.357H146.354V368.206H112.232V376.357Z" fill="#253368"/>
<path fill-rule="evenodd" clip-rule="evenodd" d="M159.251 343.806H99.3347L129.294 313.848L159.251 343.806Z" fill="#253368"/>
</g>
</g>
<path fill-rule="evenodd" clip-rule="evenodd" d="M278.359 153.49C278.359 153.49 278.799 147.757 276.843 140.608C274.887 133.458 269.578 124.897 269.522 116.303C269.466 107.709 262.112 114.919 266.276 131.126C255.276 128.333 243.723 123.096 240.266 114.703C239.004 111.637 236.042 112.134 235.971 115.089C235.9 118.044 237.083 120.812 237.083 120.812C237.083 120.812 234.949 123.212 236.404 126.546C233.572 131.578 238.247 134.77 238.247 134.77C238.247 134.77 235.395 136.579 241.174 144.062C247.161 151.817 263.101 156.931 263.101 156.931L273.79 185.034L289.006 175.384L278.359 153.49Z" fill="#997C79"/>
<path d="M265.803 130.932C265.911 130.671 266.209 130.546 266.47 130.654C266.731 130.761 266.856 131.06 266.748 131.321L266.662 131.542C266.626 131.639 266.583 131.758 266.534 131.897C266.37 132.366 266.205 132.891 266.052 133.46C265.562 135.276 265.294 137.101 265.363 138.792C265.45 140.922 266.07 142.658 267.317 143.888C267.518 144.087 267.52 144.41 267.322 144.611C267.124 144.812 266.8 144.814 266.6 144.616C265.146 143.181 264.439 141.202 264.342 138.834C264.268 137.025 264.551 135.102 265.066 133.193C265.226 132.6 265.398 132.051 265.57 131.559L265.745 131.081C265.768 131.021 265.787 130.971 265.803 130.932Z" fill="#604346"/>
<path d="M240.448 130.962C241.311 130.169 242.126 129.876 242.824 130.393C243.593 130.962 243.785 132.206 243.638 133.977C243.587 134.6 243.493 135.26 243.369 135.933C243.323 136.178 243.276 136.415 243.228 136.639L243.109 137.165L243.172 137.263C243.316 137.486 243.486 137.736 243.679 138.005C244.234 138.775 244.87 139.546 245.576 140.263C247.576 142.294 249.722 143.496 251.912 143.482C259.268 143.434 266.471 145.425 267.828 149.086C267.926 149.351 267.791 149.645 267.527 149.743C267.262 149.841 266.968 149.706 266.87 149.441C265.727 146.36 258.85 144.458 251.919 144.504C249.4 144.52 247.022 143.189 244.848 140.98C244.102 140.222 243.433 139.412 242.85 138.602C242.697 138.389 242.558 138.187 242.433 137.999L242.177 137.6C242.154 137.563 242.135 137.532 242.122 137.508C242.053 137.392 242.034 137.252 242.068 137.121L242.159 136.74C242.229 136.435 242.299 136.1 242.364 135.747C242.482 135.106 242.572 134.478 242.62 133.893C242.737 132.473 242.585 131.487 242.216 131.214C242.043 131.086 241.682 131.216 241.139 131.715C240.786 132.04 240.402 132.485 240.004 133.018C239.677 133.456 239.361 133.927 239.067 134.398L238.781 134.868C238.745 134.929 238.716 134.98 238.693 135.021C238.555 135.267 238.243 135.354 237.997 135.215C237.751 135.077 237.664 134.766 237.803 134.52L237.96 134.249C238.027 134.137 238.107 134.005 238.2 133.857C238.508 133.363 238.84 132.87 239.185 132.407C239.618 131.827 240.041 131.337 240.448 130.962Z" fill="#604346"/>
<path d="M238.875 122.724C240.025 121.772 241.109 121.599 241.817 122.645C242.395 123.5 242.445 124.7 242.112 126.159C241.948 126.875 241.696 127.631 241.379 128.404C241.228 128.773 241.069 129.129 240.908 129.466L240.625 130.033C240.552 130.175 240.493 130.284 240.453 130.355C240.315 130.6 240.003 130.688 239.758 130.549C239.512 130.411 239.425 130.099 239.563 129.854L239.72 129.561C239.754 129.495 239.791 129.421 239.832 129.339C240.037 128.929 240.243 128.483 240.434 128.016C240.731 127.292 240.966 126.587 241.115 125.932C241.391 124.722 241.352 123.783 240.97 123.218C240.703 122.822 240.277 122.89 239.527 123.511C239.133 123.836 238.707 124.285 238.266 124.824C237.91 125.259 237.565 125.727 237.245 126.195L236.969 126.607C236.915 126.692 236.871 126.762 236.838 126.814C236.691 127.054 236.376 127.129 236.136 126.981C235.895 126.833 235.821 126.518 235.969 126.278L236.11 126.055C236.169 125.964 236.239 125.859 236.318 125.741L236.401 125.618C236.737 125.128 237.099 124.637 237.475 124.177C237.955 123.591 238.424 123.097 238.875 122.724Z" fill="#604346"/>
<path d="M243.14 133.838C243.355 133.656 243.678 133.683 243.86 133.898C245.963 136.389 247.905 137.855 251.006 139.278C251.263 139.396 251.375 139.699 251.257 139.956C251.14 140.212 250.836 140.325 250.58 140.207C247.343 138.721 245.28 137.164 243.079 134.558C242.897 134.342 242.924 134.02 243.14 133.838Z" fill="#604346"/>
<path d="M241.323 128.92C241.507 128.706 241.829 128.681 242.044 128.865L242.276 129.058L242.365 129.13C242.632 129.344 242.941 129.584 243.287 129.842C244.28 130.582 245.376 131.321 246.545 132.011C248.337 133.068 250.131 133.909 251.874 134.454C252.143 134.539 252.293 134.825 252.209 135.095C252.125 135.364 251.838 135.514 251.569 135.429C249.744 134.858 247.88 133.985 246.026 132.89C244.824 132.181 243.697 131.422 242.677 130.662L242.17 130.277L241.724 129.926C241.557 129.791 241.441 129.694 241.379 129.641C241.164 129.457 241.14 129.135 241.323 128.92Z" fill="#604346"/>
<path d="M241.676 123.736C241.862 123.524 242.185 123.502 242.397 123.688L242.793 124.021L243.207 124.358C243.426 124.533 243.661 124.719 243.913 124.913C245.113 125.837 246.426 126.761 247.809 127.623C249.515 128.686 251.207 129.578 252.845 130.243C253.107 130.349 253.233 130.647 253.126 130.909C253.02 131.17 252.722 131.296 252.461 131.19C250.764 130.5 249.021 129.582 247.269 128.49C245.855 127.609 244.515 126.666 243.29 125.722L242.797 125.337C242.64 125.213 242.49 125.093 242.349 124.978L241.725 124.457C241.513 124.272 241.491 123.949 241.676 123.736Z" fill="#604346"/>
<path d="M254.308 128.366C254.574 128.46 254.713 128.753 254.618 129.018L254.503 129.35L254.278 130.024L254.197 130.275C253.879 131.259 253.562 132.317 253.266 133.407C252.926 134.659 252.636 135.873 252.413 137.018L252.288 137.689C251.786 140.54 251.78 142.675 252.365 143.749C252.5 143.997 252.408 144.307 252.16 144.442C251.913 144.577 251.602 144.485 251.468 144.237C250.684 142.797 250.743 140.241 251.41 136.823C251.639 135.651 251.934 134.413 252.28 133.139C252.58 132.032 252.902 130.96 253.224 129.961L253.536 129.021L253.656 128.676C253.75 128.41 254.042 128.271 254.308 128.366Z" fill="#604346"/>
<path d="M238.571 117.58C239.172 116.94 239.75 116.646 240.33 116.931C241.216 117.367 241.64 118.283 241.732 119.488C241.779 120.101 241.737 120.748 241.639 121.379L241.589 121.673C241.565 121.804 241.542 121.908 241.524 121.981C241.458 122.255 241.181 122.424 240.907 122.357C240.633 122.29 240.465 122.014 240.532 121.74L240.565 121.586C240.585 121.49 240.607 121.367 240.629 121.223C240.716 120.662 240.753 120.09 240.713 119.566C240.646 118.683 240.371 118.09 239.879 117.848C239.846 117.832 239.636 117.938 239.315 118.28C239.063 118.548 238.788 118.915 238.502 119.355C238.263 119.722 238.031 120.118 237.815 120.514L237.606 120.909C237.58 120.96 237.558 121.003 237.541 121.037C237.417 121.29 237.11 121.394 236.857 121.27C236.604 121.145 236.5 120.839 236.624 120.586L236.794 120.256C236.831 120.186 236.873 120.108 236.918 120.025C237.146 119.607 237.391 119.189 237.646 118.797C237.962 118.312 238.271 117.899 238.571 117.58Z" fill="#604346"/>
<path fill-rule="evenodd" clip-rule="evenodd" d="M293.138 497.151C293.138 497.151 283.51 520.281 260.991 525.792C246.249 529.399 261.769 542.593 287.649 536.337C302.403 532.772 298.835 525.307 307.105 524.93C311.901 524.712 321.434 521.815 321.746 518.167C322.29 511.793 322.433 510.005 322.585 502.575C323.488 458.551 306.244 457.772 293.138 497.151Z" fill="#253368"/>
<path fill-rule="evenodd" clip-rule="evenodd" d="M226.82 328.442C226.055 316.691 234.701 306.43 246.411 305.189L364.679 292.66C379.812 291.056 393.235 302.366 394.224 317.55C395.211 332.735 383.365 345.689 368.155 346.059L249.258 348.96C237.487 349.247 227.585 340.193 226.82 328.442Z" fill="#4E5C93"/>
<path fill-rule="evenodd" clip-rule="evenodd" d="M251.636 478.666C251.636 478.666 240.672 501.194 217.87 505.377C202.94 508.115 217.663 522.195 243.864 517.465C258.8 514.769 255.677 507.107 263.955 507.215C268.755 507.278 282.583 503.039 283.108 499.417C284.023 493.084 282.383 491.25 281.186 484.631C273.355 441.297 267.026 440.123 251.636 478.666Z" fill="#253368"/>
<path fill-rule="evenodd" clip-rule="evenodd" d="M280.987 472.799L269.115 325.275C268.126 312.972 257.1 303.963 244.847 305.442C232.728 306.907 224.193 318.061 225.947 330.141L248.615 476.865C248.615 476.865 263.253 482.158 280.987 472.799Z" fill="#4E5C93"/>
<path fill-rule="evenodd" clip-rule="evenodd" d="M462.521 260.531C472.101 258.089 478.017 248.488 475.893 238.832L458.013 157.514C455.453 145.861 443.748 138.647 432.187 141.597C420.627 144.545 413.808 156.482 417.139 167.938L440.389 247.888C443.149 257.38 452.941 262.975 462.521 260.531Z" fill="#ADC6FF"/>
<path fill-rule="evenodd" clip-rule="evenodd" d="M299.695 253.155C308.41 257.824 319.256 254.741 324.212 246.186L365.951 174.141C371.931 163.818 368.172 150.594 357.655 144.959C347.138 139.326 334.047 143.524 328.766 154.222L291.913 228.883C287.538 237.747 290.98 248.486 299.695 253.155Z" fill="#ADC6FF"/>
<path fill-rule="evenodd" clip-rule="evenodd" d="M278.974 147.067L254.723 159.553L289.197 247.147C293.653 256.57 305.084 260.454 314.337 255.69C323.591 250.926 326.943 239.433 321.709 230.41L278.974 147.067Z" fill="#ADC6FF"/>
<path d="M282.985 160.548C283.327 160.39 283.732 160.539 283.889 160.881C284.034 161.194 283.921 161.56 283.638 161.74L283.557 161.785L261.981 171.761C261.639 171.919 261.235 171.77 261.077 171.429C260.932 171.116 261.045 170.749 261.328 170.569L261.409 170.524L282.985 160.548Z" fill="#597EF7"/>
<path d="M278.522 147.015C278.829 146.849 279.208 146.944 279.403 147.222L279.452 147.303L313.139 212.781C313.311 213.115 313.179 213.526 312.845 213.698C312.538 213.856 312.168 213.758 311.975 213.483L311.928 213.404L278.558 148.544L256.236 160.638C255.933 160.802 255.56 160.712 255.362 160.441L255.313 160.363C255.149 160.06 255.238 159.687 255.509 159.489L255.587 159.44L278.522 147.015Z" fill="#597EF7"/>
<path fill-rule="evenodd" clip-rule="evenodd" d="M265.743 160.808C265.241 159.747 263.973 159.287 262.91 159.777C261.848 160.269 261.393 161.528 261.893 162.587C262.394 163.649 263.662 164.11 264.725 163.619C265.788 163.127 266.244 161.869 265.743 160.808Z" fill="white"/>
<path fill-rule="evenodd" clip-rule="evenodd" d="M405.17 129.36L400.392 99.173L367.508 101.185L369.355 132.048C369.471 139.377 374.093 146.039 381.082 148.249C381.809 148.479 382.556 148.678 383.325 148.836C394.92 151.235 406.696 141.102 405.17 129.36Z" fill="#997C79"/>
<path fill-rule="evenodd" clip-rule="evenodd" d="M409.054 84.0531C407.531 107.912 392.071 119.901 376.479 121.997C357.89 124.496 352.37 108.795 351.463 85.4467C350.542 61.7385 360.006 52.8345 377.51 50.8142C395.757 48.7081 410.598 59.8858 409.054 84.0531Z" fill="#997C79"/>
<path fill-rule="evenodd" clip-rule="evenodd" d="M396.448 88.6026C396.839 86.7171 397.1 83.5893 399.946 82.1098C403.864 80.0718 407.842 84.3603 407.69 89.345C407.504 95.3855 402.535 99.4601 399.548 99.7408C400.219 104.563 401.607 108.321 401.607 108.321C401.607 108.321 407.1 101.583 409.886 91.1569C414.231 74.891 408.763 53.1213 390.601 49.5984C362.296 44.9379 354.697 65.1491 354.697 65.1491L388.072 63.0784L388.192 74.6253C388.192 74.6253 394.339 74.4332 394.275 88.1149L396.448 88.6026Z" fill="#604346"/>
<path d="M380.921 77.628C380.97 77.6227 381.019 77.6227 381.067 77.6278L381.139 77.6394L384.652 78.3996C385.02 78.4792 385.254 78.8417 385.174 79.2094C385.101 79.5464 384.79 79.7708 384.456 79.7446L384.364 79.7311L380.959 78.9937L370.147 80.1662C369.804 80.2034 369.493 79.9793 369.412 79.6536L369.396 79.5624C369.359 79.2196 369.583 78.9087 369.909 78.828L370 78.8118L380.921 77.628Z" fill="#604346"/>
<path fill-rule="evenodd" clip-rule="evenodd" d="M386.988 108.086C382.574 102.865 383.325 98.7075 368.142 99.0454C358.299 99.2647 357.7 102.724 355.427 109.294C358.443 118.834 366.931 124.274 377.409 122.537C399.421 118.887 398.486 96.63 398.486 96.63C398.486 96.63 395.433 97.7021 394.569 99.4527C392.184 104.293 388.603 106.136 386.988 108.086Z" fill="#7C5B4D"/>
<path fill-rule="evenodd" clip-rule="evenodd" d="M362.82 102.686C362.82 102.686 369.735 102.636 377.508 102.384C377.508 102.384 376.71 106.228 370.383 106.824C365.418 107.29 362.82 102.686 362.82 102.686Z" fill="white"/>
<path d="M377.492 101.873C375.047 101.953 372.555 102.017 370.086 102.067L367.045 102.122L362.816 102.176C362.427 102.179 362.184 102.599 362.375 102.938L362.465 103.088C362.555 103.232 362.683 103.421 362.848 103.643C363.231 104.157 363.687 104.671 364.218 105.15C365.934 106.704 368.013 107.559 370.431 107.332C373.106 107.081 375.063 106.252 376.399 105.018C377.401 104.091 377.871 103.149 378.009 102.488C378.076 102.164 377.822 101.863 377.492 101.873ZM375.063 102.969L376.751 102.918L376.781 102.862C376.544 103.337 376.193 103.817 375.705 104.267C374.539 105.345 372.793 106.084 370.336 106.315C368.232 106.513 366.423 105.768 364.903 104.393L364.624 104.13C364.353 103.864 364.106 103.588 363.883 103.311L363.787 103.187L365.401 103.168C366.108 103.159 366.858 103.147 367.644 103.134C370.094 103.093 372.59 103.038 375.063 102.969Z" fill="#604346"/>
<path d="M361.784 79.1626C362.022 79.0745 362.284 79.1753 362.405 79.3892L362.44 79.4647L363.816 83.1878C363.835 83.2389 363.846 83.2925 363.848 83.3466L363.844 83.4278L362.257 96.2362C362.189 96.8815 362.69 97.437 363.39 97.453L363.515 97.4501L372.193 98.1599C372.474 98.1829 372.683 98.4295 372.66 98.7107C372.64 98.9638 372.438 99.1586 372.193 99.1783H372.11L363.512 98.4687C362.239 98.5656 361.181 97.5254 361.231 96.2614L361.242 96.12L362.814 83.4248L361.482 79.8188C361.394 79.5807 361.495 79.3188 361.709 79.1976L361.784 79.1626Z" fill="#604346"/>
<path d="M372.956 110.362C373.238 110.342 373.482 110.554 373.502 110.835C373.52 111.088 373.35 111.312 373.111 111.368L373.029 111.381L368.915 111.674C368.633 111.694 368.389 111.482 368.369 111.2C368.351 110.947 368.521 110.724 368.76 110.667L368.842 110.655L372.956 110.362Z" fill="#604346"/>
<path d="M352.4 78.9009L361.458 79.0085C361.835 79.013 362.136 79.3215 362.132 79.6977C362.127 80.0425 361.868 80.3244 361.535 80.3656L361.442 80.3707L352.384 80.2631C352.008 80.2586 351.707 79.9501 351.711 79.5739C351.715 79.2291 351.975 78.9472 352.308 78.906L352.4 78.9009Z" fill="#604346"/>
<path d="M389.149 117.478C389.382 117.317 389.7 117.376 389.86 117.608C390.021 117.84 389.963 118.158 389.73 118.318C383.247 122.8 376.467 123.946 370.689 123.245L370.266 123.189C370.134 123.169 370.011 123.15 369.897 123.13L369.607 123.075C369.331 123.015 369.157 122.742 369.218 122.467C369.278 122.191 369.55 122.017 369.826 122.077L370.085 122.127C370.266 122.158 370.51 122.194 370.812 122.231C376.363 122.905 382.898 121.8 389.149 117.478Z" fill="#604346"/>
<path d="M400.594 84.8417C401.324 84.4497 402.08 84.3486 402.73 84.406L402.828 84.4165C402.841 84.4182 402.852 84.4198 402.861 84.4213C403.14 84.4659 403.33 84.7279 403.285 85.0065C403.245 85.2573 403.029 85.436 402.783 85.4367L402.64 85.4238C402.171 85.3824 401.606 85.458 401.077 85.7421C400.072 86.2811 399.443 87.4486 399.402 89.498L399.401 89.5789L399.552 89.6014C400.877 89.82 401.721 90.4711 401.986 91.4383L402.022 91.5857C402.23 92.5908 401.781 93.761 400.936 94.6109C400.737 94.811 400.414 94.8119 400.213 94.613C400.013 94.4141 400.012 94.0906 400.211 93.8905C400.832 93.2664 401.153 92.4294 401.021 91.7931C400.877 91.0979 400.2 90.6312 398.864 90.5526C398.599 90.537 398.39 90.3214 398.383 90.0563C398.309 87.313 399.137 85.6228 400.594 84.8417Z" fill="#604346"/>
<path d="M356.821 83.8619C358.622 83.6934 360.14 85.5674 360.363 87.9336C360.399 88.3081 360.124 88.6404 359.749 88.6757C359.375 88.711 359.042 88.4361 359.007 88.0615C358.846 86.3554 357.856 85.1333 356.948 85.2182C356.039 85.3041 355.294 86.6881 355.454 88.3945C355.489 88.7691 355.213 89.1011 354.839 89.1362C354.464 89.1713 354.132 88.8961 354.097 88.5215C353.876 86.155 355.018 84.0321 356.821 83.8619Z" fill="#604346"/>
<path d="M376.706 83.9189C378.458 83.7543 379.931 85.5715 380.146 87.863C380.181 88.2375 379.905 88.5697 379.531 88.6048C379.156 88.6399 378.824 88.3647 378.789 87.9902C378.636 86.3592 377.693 85.1946 376.834 85.2753C375.975 85.3559 375.265 86.6755 375.418 88.3071C375.453 88.6817 375.178 89.0137 374.804 89.0489C374.429 89.084 374.097 88.8088 374.062 88.4343C373.847 86.1424 374.955 84.0835 376.706 83.9189Z" fill="#604346"/>
<path fill-rule="evenodd" clip-rule="evenodd" d="M354.206 250.796C354.206 250.796 333.88 162.264 335.5 146.584C346.396 138.899 351.352 139.03 370.668 133.97C374.236 133.036 379.692 139.97 384.002 139.297C390.376 138.302 395.221 130.401 401.365 130.792C425.245 132.311 447.108 144.708 447.108 144.708L438.34 249.368C438.34 249.368 447.159 270.138 424.91 270.282C409.951 270.379 379.932 273.542 359.315 269.558C353.553 268.445 352.304 258.142 354.206 250.796Z" fill="#ADC6FF"/>
<path fill-rule="evenodd" clip-rule="evenodd" d="M368.038 130.121L361.631 136.616L369.412 153.442L380.834 140.327L368.038 130.121Z" fill="#ADC6FF"/>
<path fill-rule="evenodd" clip-rule="evenodd" d="M381.212 139.557L403.701 125.822L409.928 131.699L397.406 152.493L381.212 139.557Z" fill="#ADC6FF"/>
<path fill-rule="evenodd" clip-rule="evenodd" d="M372.839 149.584L381.596 139.555L391.372 148.441L388.89 160.22L376.366 161.069L372.839 149.584Z" fill="#253368"/>
<path fill-rule="evenodd" clip-rule="evenodd" d="M389.424 159.162L376.369 159.233C376.369 159.233 370.799 207.344 370.148 224.993C370.065 227.246 385.646 248.674 385.646 248.674C385.646 248.674 402.094 225.045 401.585 222.486C397.62 202.566 393.614 176.51 389.424 159.162Z" fill="#253368"/>
<path d="M409.345 131.736C409.536 131.412 409.954 131.305 410.278 131.496C410.574 131.672 410.689 132.037 410.559 132.347L410.517 132.429L397.998 153.608C397.797 153.948 397.355 154.041 397.037 153.83L396.96 153.771L381.175 139.786L369.449 155.138C369.15 155.53 368.558 155.478 368.32 155.069L368.278 154.983L361.003 137.258C360.86 136.91 361.027 136.512 361.375 136.369C361.694 136.238 362.055 136.367 362.223 136.657L362.263 136.741L369.086 153.367L380.537 138.377C380.758 138.089 381.16 138.028 381.453 138.222L381.53 138.281L397.245 152.203L409.345 131.736Z" fill="#597EF7"/>
<path d="M339.035 180.032C339.404 179.956 339.764 180.193 339.84 180.561L340.294 182.749C340.771 185.05 341.259 187.389 341.757 189.763L343.094 196.115C345.12 205.697 347.229 215.504 349.353 225.251L352.224 238.348L354.868 250.263C354.895 250.385 354.889 250.512 354.849 250.63L354.743 250.97C354.719 251.049 354.694 251.137 354.666 251.236C354.525 251.733 354.384 252.294 354.252 252.909C353.718 255.391 353.495 257.927 353.757 260.276C354.237 264.583 356.264 267.602 360.29 268.905C360.648 269.02 360.844 269.404 360.729 269.762C360.613 270.12 360.229 270.317 359.871 270.201C355.282 268.716 352.937 265.225 352.403 260.427C352.123 257.912 352.358 255.237 352.92 252.622C353.03 252.107 353.148 251.626 353.266 251.186L353.399 250.713L353.498 250.381L350.894 238.641C350.428 236.527 349.942 234.32 349.44 232.029L348.022 225.541C345.425 213.624 342.851 201.62 340.423 190.042L338.96 183.026L338.506 180.837C338.43 180.469 338.667 180.108 339.035 180.032Z" fill="#597EF7"/>
<path fill-rule="evenodd" clip-rule="evenodd" d="M441.032 271.84C441.032 271.84 365.226 281.982 359.622 274.788C357.156 271.62 353.611 298.221 347.763 321.799C350.881 327.86 374.419 337.885 387.951 343.863C393.068 346.123 397.71 344.777 397.71 344.777C404.418 346.439 445.212 325.002 445.212 325.002C445.212 325.002 450.453 305.021 441.032 271.84Z" fill="#4E5C93"/>
<path fill-rule="evenodd" clip-rule="evenodd" d="M358.052 267.909L357.829 277.111C357.829 277.111 365.238 277.958 390.948 277.791C417.032 277.622 441.04 273.224 441.04 273.224L440.673 264.88C440.673 264.88 387.293 266.052 358.052 267.909Z" fill="black"/>
<path fill-rule="evenodd" clip-rule="evenodd" d="M370.125 276.473L369.842 269.791C369.761 267.908 371.223 266.358 373.025 266.424C377.348 266.58 384.981 266.727 390.498 266.11C392.302 265.91 393.873 267.389 393.896 269.284L393.983 276.118C394.002 277.716 392.905 279.078 391.397 279.345C387.814 279.979 380.897 280.777 372.795 279.541C371.318 279.316 370.192 278.03 370.125 276.473Z" fill="#E4EBF7"/>
<path fill-rule="evenodd" clip-rule="evenodd" d="M372.88 275.523L372.668 270.797C372.607 269.465 373.736 268.366 375.126 268.41C378.46 268.518 384.35 268.616 388.607 268.176C389.998 268.032 391.209 269.078 391.227 270.419L391.287 275.252C391.3 276.383 390.453 277.347 389.289 277.537C386.525 277.988 381.188 278.558 374.938 277.691C373.799 277.532 372.931 276.624 372.88 275.523Z" fill="black"/>
<path d="M423.361 180.651C423.719 180.538 424.102 180.738 424.215 181.096L424.435 181.817L424.874 183.302L425.332 184.899C425.851 186.728 426.432 188.838 427.071 191.238L427.562 193.093C430.268 203.393 433.375 216.328 436.836 232.089C436.916 232.456 436.684 232.819 436.317 232.9C435.949 232.981 435.586 232.748 435.505 232.381L434.612 228.338C431.586 214.743 428.845 203.38 426.421 194.114L425.597 190.997C424.969 188.652 424.401 186.597 423.894 184.822L423.47 183.356L422.915 181.506C422.802 181.147 423.002 180.764 423.361 180.651Z" fill="#597EF7"/>
<path fill-rule="evenodd" clip-rule="evenodd" d="M372.625 264.101L316.288 264.468C314.708 264.477 313.303 263.465 312.813 261.963L293.227 201.839C292.465 199.504 294.197 197.102 296.653 197.086L352.991 196.719C354.57 196.71 355.975 197.722 356.465 199.224L376.052 259.348C376.813 261.685 375.082 264.085 372.625 264.101Z" fill="#4E5C93"/>
<path fill-rule="evenodd" clip-rule="evenodd" d="M368.534 264.128L312.197 264.495C310.617 264.504 309.213 263.492 308.722 261.989L289.135 201.865C288.375 199.53 290.106 197.129 292.562 197.112L348.901 196.746C350.479 196.736 351.884 197.748 352.374 199.251L371.962 259.375C372.722 261.711 370.992 264.112 368.534 264.128Z" fill="#253368"/>
<path fill-rule="evenodd" clip-rule="evenodd" d="M327.592 268.62C327.592 268.62 348.125 269.677 352.794 261.176C357.021 253.478 347.971 246.837 347.971 246.837C347.971 246.837 340.301 242.454 330.739 239.994C324.473 238.382 313.033 233.538 311.32 236.529C309.084 240.431 321.604 243.469 322.071 246.691C323.016 253.219 302.797 250.518 299.267 251.84C292.371 254.427 302.954 267.54 327.592 268.62Z" fill="#997C79"/>
<path d="M298.892 255.173C298.974 254.903 299.26 254.751 299.53 254.834C300.264 255.059 301.019 255.258 301.793 255.43C306.532 256.483 311.598 256.514 316.324 255.935C316.846 255.871 317.326 255.803 317.758 255.735L318.458 255.617C318.562 255.598 318.641 255.582 318.694 255.571C318.971 255.515 319.241 255.693 319.297 255.969C319.354 256.245 319.176 256.515 318.9 256.572L318.393 256.666L318.242 256.691C317.718 256.779 317.117 256.867 316.448 256.949C311.617 257.542 306.441 257.509 301.572 256.427C300.772 256.249 299.991 256.044 299.23 255.811C298.961 255.728 298.809 255.442 298.892 255.173Z" fill="#604346"/>
<path d="M301.065 259.759C301.159 259.493 301.452 259.355 301.717 259.449L301.941 259.523C302.099 259.574 302.315 259.638 302.585 259.713C303.313 259.916 304.17 260.119 305.149 260.309C309.642 261.18 314.97 261.477 320.976 260.854C321.256 260.825 321.508 261.029 321.537 261.31C321.566 261.59 321.362 261.841 321.081 261.87C314.971 262.504 309.542 262.202 304.955 261.312C303.948 261.117 303.065 260.908 302.311 260.698L301.939 260.591L301.62 260.493C301.501 260.455 301.419 260.427 301.375 260.412C301.109 260.317 300.97 260.025 301.065 259.759Z" fill="#604346"/>
<path d="M310.044 264.42C315.624 265.265 320.082 265.394 323.348 265.109L323.798 265.065C323.867 265.058 323.933 265.05 323.997 265.043L324.347 264.998C324.391 264.991 324.424 264.986 324.444 264.982C324.722 264.935 324.986 265.122 325.034 265.4C325.082 265.678 324.895 265.942 324.617 265.99L324.31 266.034L323.908 266.081C323.763 266.097 323.606 266.112 323.437 266.126L322.728 266.181C319.46 266.397 315.162 266.229 309.891 265.43C309.612 265.388 309.42 265.127 309.462 264.848C309.5 264.597 309.715 264.417 309.961 264.414L310.044 264.42Z" fill="#604346"/>
<path d="M310.838 236.359C310.932 236.093 311.224 235.954 311.49 236.049C311.756 236.143 311.895 236.435 311.801 236.701C311.579 237.328 311.58 237.682 311.798 238.03L311.923 238.214C312.031 238.399 311.871 238.323 312.547 238.805L315.339 240.756C315.755 241.047 316.158 241.3 316.792 241.671L317.813 242.26C320.023 243.526 320.985 244.192 321.694 245.132C322.69 246.452 322.6 247.916 321.292 249.522C319.881 251.255 316.322 252.121 311.195 252.396C308.494 252.54 305.608 252.504 302.839 252.355L301.933 252.301L301.066 252.24C300.976 252.233 300.907 252.227 300.859 252.223C300.578 252.199 300.37 251.951 300.394 251.67C300.418 251.389 300.666 251.181 300.947 251.205L301.466 251.245L301.999 251.282C302.278 251.3 302.577 251.317 302.894 251.335C305.63 251.481 308.481 251.518 311.141 251.375L311.911 251.329C316.328 251.026 319.407 250.219 320.5 248.877C321.522 247.622 321.58 246.677 320.879 245.748C320.338 245.031 319.539 244.447 317.822 243.445L316.265 242.547C315.732 242.234 315.355 242.002 314.994 241.759L312.589 240.095C312.522 240.047 312.466 240.007 312.425 239.978C311.738 239.479 311.323 239.113 311.041 238.731C310.537 238.049 310.491 237.339 310.838 236.359Z" fill="#604346"/>
<path fill-rule="evenodd" clip-rule="evenodd" d="M346.953 245.679L350.412 272.127L460.005 264.165C470.392 263.304 478.046 253.967 476.837 243.63C475.629 233.291 466.045 226.116 455.759 227.845L346.953 245.679Z" fill="#ADC6FF"/>
<path d="M363.046 242.879C363.389 242.841 363.7 243.065 363.781 243.391L363.797 243.482L366.38 267.112C366.421 267.486 366.151 267.823 365.777 267.864C365.434 267.901 365.123 267.677 365.042 267.352L365.026 267.26L362.443 243.63C362.402 243.256 362.672 242.92 363.046 242.879Z" fill="#597EF7"/>
<path d="M449.226 228.321C449.597 228.259 449.948 228.51 450.01 228.881C450.067 229.221 449.861 229.544 449.54 229.644L449.45 229.665L348.68 246.489L351.424 269.452C351.465 269.794 351.245 270.107 350.92 270.192L350.829 270.209C350.487 270.25 350.173 270.029 350.089 269.704L350.072 269.613L347.25 246.006C347.211 245.675 347.416 245.369 347.727 245.274L347.815 245.253L449.226 228.321Z" fill="#597EF7"/>
<path fill-rule="evenodd" clip-rule="evenodd" d="M357.246 262.21C356.081 262.348 355.239 263.402 355.366 264.565C355.494 265.73 356.54 266.562 357.706 266.425C358.871 266.289 359.713 265.233 359.586 264.069C359.458 262.905 358.41 262.072 357.246 262.21Z" fill="white"/>
<path fill-rule="evenodd" clip-rule="evenodd" d="M294.807 338.558C295.273 328.661 302.305 320.302 311.976 318.148L409.692 296.391C424.054 291.367 439.711 299.305 444.148 313.858C448.587 328.413 440.021 343.735 425.297 347.578L319.593 361.374C306.03 363.144 294.164 352.222 294.807 338.558Z" fill="#4E5C93"/>
<path fill-rule="evenodd" clip-rule="evenodd" d="M323.333 488.712L339.545 341.602C340.897 329.334 331.772 318.403 319.459 317.542C307.283 316.691 296.793 326.032 296.234 338.225L289.437 486.341C289.437 486.341 304.151 494.552 323.333 488.712Z" fill="#4E5C93"/>
<path d="M392.525 300.635C392.896 300.573 393.247 300.824 393.309 301.195C393.365 301.535 393.159 301.858 392.838 301.957L392.732 301.981L388.959 302.621L385.015 303.305C383.097 303.64 381.074 303.998 378.963 304.377C369.312 306.109 359.661 307.939 350.572 309.797L348.633 310.196C340.834 311.807 333.818 313.37 327.78 314.858L326.096 315.277C316.906 317.591 310.417 319.656 307.162 321.389C303.174 323.511 300.377 329.16 298.655 337.248C297.857 340.998 297.343 345.023 297.057 349.05L296.98 350.234C296.934 351.006 296.899 351.743 296.874 352.437L296.85 353.191L296.829 354.319L296.829 354.431L296.822 354.523C296.777 354.856 296.493 355.112 296.148 355.112C295.803 355.112 295.518 354.856 295.473 354.524L295.466 354.431L295.47 354.024C295.475 353.701 295.483 353.327 295.495 352.908C295.532 351.713 295.597 350.384 295.698 348.953C295.988 344.868 296.51 340.783 297.323 336.964C299.122 328.513 302.072 322.554 306.522 320.186C310.038 318.315 316.991 316.131 326.88 313.677L327.454 313.535C333.511 312.042 340.543 310.477 348.357 308.861C357.375 306.997 366.994 305.157 376.652 303.409L381.389 302.56C383.133 302.251 384.807 301.957 386.4 301.68L392.525 300.635Z" fill="black"/>
</svg>
