<svg width="425" height="342" viewBox="0 0 425 342" fill="none" xmlns="http://www.w3.org/2000/svg">
<path d="M138.5 11.25L150.77 150.398L205.824 168.75L261.23 150.398L273.5 11.25H138.5ZM246.852 56.2148H182.234L183.676 73.582H245.41L240.629 125.754L206.211 135.246V135.352H205.824L171.125 125.754L169.016 99.1055H185.785L187.016 112.5L205.824 117.598L224.703 112.5L226.812 90.6328H168.137L163.637 39.4453H248.398L246.852 56.2148Z" fill="#FC6E46"/>
<path d="M278 179.735L289.452 308.061L341 324.985L392.548 308.061L404 179.735H278ZM380.736 205.673L379.161 221.008L341.328 236.992L341.23 237.024H377.816L373.616 284.555L341.394 293.86L308.975 284.393L306.875 260.433H322.92L323.97 272.851L341.23 277.163L359.178 272.17L360.392 252.198L305.825 252.036V252.003L305.759 252.036L304.578 237.024L341.361 221.883L343.494 221.008H303.167L301.264 205.673H380.736Z" fill="#73AAD3"/>
<path d="M12.88 317.22L0 176H138L125.58 317.22L69.92 333.78L12.88 317.22Z" fill="#D4B830"/>
<path d="M63.94 203.14H25.3L26.22 222H45.54V279.5L35.42 278.58V266.62H19.32L21.16 292.84L63.94 301.12V203.14Z" fill="black"/>
<path d="M118.68 203.14H73.6V257.42H95.68L94.76 279.5L73.6 283.64V301.12L111.78 291.92L115.46 238.1H92V221.54H118.22L118.68 203.14Z" fill="black"/>
</svg>
